# Blender v2.91.0 OBJ File: ''
# www.blender.org
mtllib Truck_wheel_back_left.mtl
o Truck.001
v 0.303054 -0.671943 0.489119
v 0.303054 -0.789916 0.257584
v 0.303054 -0.830567 0.000924
v 0.303054 -0.256659 0.790841
v 0.303054 0.671943 0.489119
v 0.303054 0.671942 -0.487271
v 0.303054 -0.256660 -0.788992
v 0.303054 -0.671944 -0.487270
v 0.303054 -0.789917 -0.255734
v -0.303055 -0.789917 -0.255734
v -0.303055 -0.789916 0.257584
v -0.303055 -0.671943 0.489119
v -0.303055 -0.830567 0.000924
v -0.303055 -0.488195 -0.671018
v -0.303055 -0.671944 -0.487270
v -0.303055 -0.256660 -0.788992
v -0.303055 0.789917 0.257584
v -0.303055 0.830567 0.000924
v -0.303055 0.671943 0.489119
v -0.303055 -0.488195 0.672867
v -0.303055 0.789917 -0.255735
v -0.303055 0.671943 -0.487271
v -0.303055 -0.256659 0.790841
v -0.303055 0.000000 0.831492
v -0.303055 0.488195 -0.671019
v -0.303055 0.256660 0.790841
v -0.303055 0.256659 -0.788992
v -0.303055 0.488195 0.672867
v -0.303055 0.000000 -0.829643
v 0.303054 0.830567 0.000924
v 0.303054 0.789917 0.257584
v 0.303054 0.789917 -0.255735
v 0.303054 -0.488196 -0.671018
v 0.303054 0.000000 -0.829643
v 0.303054 0.256659 -0.788992
v 0.303054 0.488194 -0.671019
v 0.303054 0.488195 0.672867
v 0.303054 0.256660 0.790841
v 0.303054 0.000000 0.831492
v 0.303054 -0.488195 0.672867
vt 0.952414 0.395617
vt 0.987805 0.326158
vt 1.000000 0.249163
vt 0.827833 0.486131
vt 0.549260 0.395617
vt 0.549260 0.102708
vt 0.827833 0.012195
vt 0.952414 0.102709
vt 0.987805 0.172167
vt 0.985133 0.676360
vt 0.985133 0.828614
vt 0.950141 0.897289
vt 0.997190 0.752487
vt 0.895640 0.553183
vt 0.950141 0.607684
vt 0.826965 0.518191
vt 0.516542 0.828614
vt 0.504484 0.752487
vt 0.551533 0.897289
vt 0.895640 0.951790
vt 0.516542 0.676359
vt 0.551534 0.607684
vt 0.826965 0.986782
vt 0.750837 0.998840
vt 0.606035 0.553183
vt 0.674710 0.986782
vt 0.674710 0.518191
vt 0.606035 0.951790
vt 0.750838 0.506134
vt 0.501675 0.249163
vt 0.513869 0.326158
vt 0.513870 0.172167
vt 0.897292 0.047586
vt 0.750838 0.000000
vt 0.673842 0.012195
vt 0.604383 0.047586
vt 0.604383 0.450740
vt 0.673842 0.486131
vt 0.750837 0.498325
vt 0.897291 0.450740
vt 0.438063 0.495150
vt 0.438063 0.396552
vt 0.063398 0.396552
vt 0.063398 0.100757
vt 0.438063 0.100758
vt 0.438063 0.002160
vt 0.063398 0.002160
vt 0.063398 0.495149
vt 0.063398 0.199355
vt 0.063398 0.199355
vt 0.438063 0.199356
vt 0.438063 0.100758
vt 0.063398 0.297954
vt 0.063398 0.100757
vt 0.438063 0.002160
vt 0.063398 0.495149
vt 0.438063 0.495150
vt 0.438063 0.396552
vt 0.063398 0.002160
vt 0.063398 0.396552
vt 0.438063 0.297954
vt 0.063398 0.396552
vt 0.438063 0.396552
vt 0.438063 0.297954
vt 0.063398 0.495149
vt 0.063398 0.297954
vt 0.438063 0.199356
vt 0.438063 0.495150
vt 0.438063 0.002160
vt 0.063398 0.002160
vt 0.063398 0.100757
vt 0.438063 0.100758
vt 0.063398 0.199355
vt 0.438063 0.199356
vt 0.063398 0.297954
vt 0.438063 0.297954
vt 0.063398 0.396552
vt 0.438063 0.396552
vt 0.063398 0.495149
vt 0.438063 0.495150
vt 0.438063 0.002160
vt 0.063398 0.002160
vt 0.063398 0.100757
vt 0.438063 0.100758
vt 0.063398 0.199355
vt 0.438063 0.199356
vt 0.063398 0.297954
vt 0.438063 0.297954
vn 1.0000 -0.0000 -0.0000
vn -1.0000 -0.0000 0.0000
vn 0.6735 -0.7391 0.0001
vn 0.6735 -0.7030 0.2284
vn -0.6735 -0.7030 0.2284
vn -0.6735 -0.7031 -0.2283
vn 0.6735 -0.7030 -0.2284
vn -0.6735 -0.7391 -0.0000
vn -0.6735 -0.5979 -0.4346
vn -0.6735 0.5980 0.4345
vn 0.6735 0.5981 0.4344
vn 0.6735 0.7030 0.2284
vn -0.6735 0.4344 0.5981
vn -0.6735 0.7029 0.2287
vn 0.6735 0.7392 0.0000
vn -0.6735 0.7392 0.0000
vn 0.6735 0.7030 -0.2284
vn -0.6735 0.7030 -0.2284
vn 0.6735 0.5981 -0.4344
vn -0.6735 -0.2285 -0.7030
vn 0.6735 -0.2284 -0.7030
vn 0.6735 -0.4345 -0.5980
vn -0.6735 -0.0000 -0.7392
vn -0.6735 -0.4345 -0.5980
vn 0.6735 -0.5979 -0.4346
vn 0.6735 -0.0000 -0.7392
vn -0.6735 0.2284 -0.7030
vn 0.6735 0.2284 -0.7030
vn -0.6735 0.4345 -0.5980
vn 0.6735 0.4346 -0.5979
vn -0.6735 0.5979 -0.4346
vn 0.6735 0.4346 0.5979
vn -0.6735 0.2284 0.7030
vn 0.6735 0.2284 0.7030
vn -0.6735 -0.0002 0.7392
vn 0.6735 0.0002 0.7392
vn -0.6735 -0.2284 0.7030
vn 0.6735 -0.2284 0.7030
vn -0.6735 -0.4346 0.5979
vn 0.6735 -0.4345 0.5980
vn -0.6735 -0.5980 0.4345
vn 0.6735 -0.5979 0.4346
usemtl Pickup_Wheels.001
s off
f 1/1/1 2/2/1 3/3/1
f 1/1/1 3/3/1 4/4/1
f 3/3/1 5/5/1 4/4/1
f 3/3/1 6/6/1 5/5/1
f 3/3/1 7/7/1 6/6/1
f 3/3/1 8/8/1 7/7/1
f 3/3/1 9/9/1 8/8/1
f 10/10/2 11/11/2 12/12/2
f 10/10/2 13/13/2 11/11/2
f 10/10/2 14/14/2 15/15/2
f 10/10/2 16/16/2 14/14/2
f 10/10/2 17/17/2 18/18/2
f 10/10/2 19/19/2 17/17/2
f 10/10/2 12/12/2 20/20/2
f 10/10/2 18/18/2 21/21/2
f 10/10/2 21/21/2 22/22/2
f 10/10/2 20/20/2 23/23/2
f 10/10/2 23/23/2 24/24/2
f 10/10/2 22/22/2 25/25/2
f 10/10/2 24/24/2 26/26/2
f 10/10/2 25/25/2 27/27/2
f 10/10/2 26/26/2 28/28/2
f 10/10/2 27/27/2 29/29/2
f 10/10/2 28/28/2 19/19/2
f 10/10/2 29/29/2 16/16/2
f 30/30/1 31/31/1 5/5/1
f 6/6/1 30/30/1 5/5/1
f 6/6/1 32/32/1 30/30/1
f 8/8/1 33/33/1 7/7/1
f 7/7/1 34/34/1 35/35/1
f 35/35/1 36/36/1 6/6/1
f 7/7/1 35/35/1 6/6/1
f 5/5/1 37/37/1 38/38/1
f 38/38/1 39/39/1 4/4/1
f 5/5/1 38/38/1 4/4/1
f 1/1/1 4/4/1 40/40/1
s 1
f 3/41/3 2/42/4 11/43/5
f 10/44/6 9/45/7 3/46/3
f 3/46/3 13/47/8 10/44/6
f 11/43/5 13/48/8 3/41/3
f 9/45/7 10/44/6 15/49/9
f 19/50/10 5/51/11 31/52/12
f 5/51/11 19/50/10 28/53/13
f 31/52/12 17/54/14 19/50/10
f 17/54/14 31/52/12 30/55/15
f 18/56/16 30/57/15 32/58/17
f 30/55/15 18/59/16 17/54/14
f 21/60/18 32/58/17 6/61/19
f 32/58/17 21/60/18 18/56/16
f 16/62/20 7/63/21 33/64/22
f 7/63/21 16/62/20 29/65/23
f 33/64/22 14/66/24 16/62/20
f 14/66/24 33/64/22 8/67/25
f 29/65/23 34/68/26 7/63/21
f 34/69/26 29/70/23 27/71/27
f 27/71/27 35/72/28 34/69/26
f 25/73/29 36/74/30 35/72/28
f 35/72/28 27/71/27 25/73/29
f 36/74/30 25/73/29 22/75/31
f 22/75/31 6/61/19 36/74/30
f 28/53/13 37/76/32 5/51/11
f 37/76/32 28/53/13 26/77/33
f 26/77/33 38/78/34 37/76/32
f 24/79/35 39/80/36 38/78/34
f 38/78/34 26/77/33 24/79/35
f 39/81/36 24/82/35 23/83/37
f 23/83/37 4/84/38 39/81/36
f 6/61/19 22/75/31 21/60/18
f 4/84/38 23/83/37 20/85/39
f 40/86/40 20/85/39 12/87/41
f 20/85/39 40/86/40 4/84/38
f 12/87/41 1/88/42 40/86/40
f 1/88/42 12/87/41 11/43/5
f 8/67/25 15/49/9 14/66/24
f 15/49/9 8/67/25 9/45/7
f 11/43/5 2/42/4 1/88/42
