# Blender v2.91.0 OBJ File: ''
# www.blender.org
mtllib Truck_hull.mtl
o Truck.002
v -0.000000 0.091312 -1.942427
v -0.000000 -0.135073 -1.941402
v -0.000000 0.828627 -1.945768
v 1.820716 0.828627 -5.822856
v 1.741967 0.828627 -5.901607
v 1.645821 0.828627 -5.726712
v -0.000000 0.828627 -5.709951
v -0.000000 0.828627 -5.901607
v -0.000000 0.405882 -5.709951
v -0.000000 -0.135073 -5.709951
v 1.645821 -0.135072 -5.726712
v 1.629061 -0.135074 -4.621065
v 1.629061 0.145899 -4.469095
v 1.629061 0.395297 -3.909703
v 1.629061 0.167335 -3.291255
v 1.629061 -0.135076 -3.008609
v 1.629061 -0.135077 -1.932740
v 1.629062 0.828623 -1.932739
v -0.000000 -0.135073 -1.941402
v 1.295094 -0.135076 -3.008609
v 1.147641 -0.135074 -3.215996
v 1.147641 -0.135074 -4.447914
v 1.295094 -0.135074 -4.621065
v 1.350151 -1.066429 -1.606605
v 2.012113 -1.066429 -1.606605
v 2.010988 -1.089577 1.209194
v 1.349025 -1.089577 1.209194
v 2.010459 -1.102741 2.299544
v 1.348497 -1.102741 2.299545
v -0.000000 -1.073430 -0.754936
v 0.000340 -1.066429 -1.606605
v -0.000000 -1.089577 1.209194
v -0.000000 0.828627 -1.945768
v 1.348390 -0.159241 2.713182
v 1.348390 0.012938 3.268656
v 1.348390 -0.145049 3.785641
v -1.820717 0.828627 -5.822856
v -1.645822 0.828627 -5.726712
v -1.741968 0.828627 -5.901607
v -1.645822 -0.135073 -5.726712
v -1.629062 0.145899 -4.469095
v -1.629061 -0.135074 -4.621065
v -1.629061 -0.135077 -1.932740
v -1.629061 -0.135076 -3.008609
v -1.629061 0.167335 -3.291255
v -1.629062 0.828623 -1.932739
v -1.629062 0.395297 -3.909702
v -1.295095 -0.135074 -4.621065
v -1.147641 -0.135074 -4.447914
v -1.147641 -0.135074 -3.215996
v -1.295094 -0.135076 -3.008609
v -1.350151 -1.066429 -1.606605
v -1.349025 -1.089577 1.209194
v -2.010988 -1.089577 1.209194
v -2.012113 -1.066429 -1.606605
v -1.348496 -1.102741 2.299545
v -2.010459 -1.102741 2.299545
v -0.000341 -1.066429 -1.606605
v -1.348389 -0.159241 2.713182
v -1.348389 -0.145049 3.785641
v -1.348389 0.012938 3.268656
v -1.645822 -0.135073 -5.726712
v -0.000000 -0.135073 -5.709951
v -0.000000 0.828627 -5.709951
v -0.000000 -0.135073 -5.709951
v -0.000000 0.405882 -5.709951
v -0.000000 0.828627 -5.709951
v -0.000000 -0.135073 -1.941402
v -1.629061 -0.135077 -1.932740
v -0.000000 0.828627 -1.945768
v 1.844184 0.555674 3.307363
v 1.831515 0.650498 2.006626
v 1.649315 0.769435 2.186135
v 1.630347 0.613718 3.317767
v 1.279309 1.761531 -1.556087
v -0.000000 1.816298 -1.605187
v -0.000000 1.830925 -0.282500
v 1.274057 1.779269 -0.282012
v 1.329838 1.685400 -1.681037
v -0.000000 1.715506 -1.753845
v 1.940040 0.258188 -3.129098
v 1.940040 0.420567 -3.770810
v 1.820717 0.828622 -1.934795
v 1.940040 0.265654 -2.506683
v 1.580424 1.099988 1.706483
v 1.392628 1.615091 1.061727
v 1.337384 1.632522 1.262211
v 1.715770 0.741656 2.079849
v 1.940040 0.243640 -1.674704
v 1.940040 0.241870 1.207321
v 1.940040 0.244713 2.635345
v 1.920015 -0.144541 2.212877
v 1.920544 -0.136292 1.209228
v 1.921669 -0.113144 -1.606571
v 1.923532 -0.101848 -2.713910
v 1.940040 0.280152 -4.437895
v 1.940041 0.214519 -5.822946
v 1.825041 0.813838 -5.824382
v 1.820758 0.127270 4.501324
v 1.814677 0.300487 4.441597
v 1.595139 0.308193 4.655339
v 1.621228 0.094869 4.755195
v 1.849406 0.674997 1.202307
v 1.820717 0.825003 -1.780200
v 1.917272 -0.147202 -4.889290
v 1.922099 -0.145742 -5.822856
v 1.723425 -0.371783 4.705365
v 1.781435 -0.457204 4.792406
v 1.979164 -0.457104 4.561934
v 1.871068 -0.400312 4.423343
v 2.091419 -0.394174 -4.731017
v 1.979320 -0.404256 -5.822896
v 2.114187 0.014363 -4.326967
v 2.114187 0.137109 -3.787675
v 2.114187 0.023664 -3.243069
v 2.097679 -0.408636 -2.798087
v 2.095816 -0.414456 -1.606605
v 2.094690 -0.437604 1.209194
v 2.094162 -0.450768 2.248991
v 2.114186 -0.007361 2.641737
v 2.114186 0.164818 3.268656
v 1.940040 0.400966 3.291411
v 2.081412 -0.034927 3.885499
v 1.907265 0.159672 4.033887
v 1.884660 -0.190033 4.277098
v 2.045215 -0.419047 4.190317
v 2.091419 -0.490380 -4.594252
v 1.979345 -0.500514 -5.822896
v 2.114187 -0.137516 -4.284152
v 2.114187 -0.014770 -3.787675
v 2.114187 -0.128215 -3.309482
v 2.097679 -0.560515 -2.901009
v 2.095816 -0.566336 -1.606605
v 2.094690 -0.589483 1.209194
v 2.094162 -0.602647 2.344890
v 2.114186 -0.159240 2.713182
v 2.114186 0.012938 3.268656
v 2.081411 -0.145048 3.785641
v 2.045215 -0.492136 4.083759
v 1.901740 -0.996164 4.186872
v 1.898256 -0.984061 4.305789
v 2.013977 -1.060608 -2.812914
v 1.403750 0.314523 4.716949
v 1.404093 0.100458 4.816375
v 1.390260 0.478080 4.602508
v 1.367168 0.532874 4.409075
v 1.181080 0.589469 4.479824
v 1.188980 0.494497 4.700081
v 1.635344 -0.866574 4.779349
v 1.829489 -0.945623 4.572277
v 1.418328 1.657613 0.336548
v 1.279309 1.730251 1.014454
v 1.480984 1.568564 0.858111
v 1.423833 1.674576 -1.524947
v 1.458668 1.610972 -1.613993
v -0.000000 1.807118 0.444767
v -0.000000 1.786261 1.199104
v 1.821640 -0.186953 4.597092
v 1.872034 0.292783 4.065645
v 1.187027 0.106863 4.886479
v -0.000000 0.509214 4.745185
v -0.000000 0.118857 4.932940
v -0.000000 0.610097 4.501218
v 1.742397 0.485159 4.310483
v 1.795163 0.499416 4.026733
v 1.611696 0.549028 4.068193
v 1.629423 0.537768 4.216407
v 1.404095 -0.367523 4.893740
v 1.168929 -0.363021 4.954465
v 1.534127 0.526507 4.364621
v 1.576608 0.471005 4.522343
v 1.347952 -0.438922 5.032880
v 1.242927 -0.754573 5.002065
v 1.469805 0.560244 4.079933
v 1.504534 0.637428 3.283745
v 1.310886 0.646711 4.089947
v 1.385578 0.728777 3.291185
v 1.504128 0.784837 2.292442
v -0.000000 -1.130533 4.575305
v -0.000000 -1.168096 4.334514
v 1.722712 -1.121984 4.334514
v 1.646673 -1.084709 4.575305
v 1.201071 -1.135315 4.211349
v 1.722547 -1.135315 4.211349
v -0.000000 -1.073475 4.774806
v 1.445531 -1.028544 4.774806
v 1.052781 -0.963609 4.955895
v -0.000000 -0.983605 5.003390
v -0.000000 -0.433401 5.079956
v -0.000000 -0.745354 5.056275
v 1.861291 0.210792 -5.901607
v -0.000000 0.210792 -5.901607
v -0.000000 0.297082 -5.901607
v 1.843756 -0.145619 -5.901607
v -0.000000 -0.145619 -5.901607
v -0.000000 -0.404983 -5.901642
v 1.900923 -0.404983 -5.901642
v 1.900923 -0.501189 -5.901642
v -0.000000 -0.501189 -5.901642
v 2.017803 -0.538152 -5.992247
v 1.900923 -0.538827 -6.070991
v 2.129876 -0.980385 -4.680334
v 2.017803 -0.837863 -5.974417
v 1.900923 -0.838537 -6.053167
v 2.017803 -0.946559 -5.868832
v 1.900923 -0.947233 -5.947576
v 1.295094 0.145899 -4.469095
v 1.295094 0.395297 -3.909703
v 1.295094 0.167335 -3.291255
v 1.147641 0.039672 -4.315896
v 1.147641 0.212060 -3.909703
v 1.147640 0.039894 -3.389668
v 1.533078 1.483758 1.048925
v 1.352014 -1.060608 -2.812914
v -0.000000 -1.065866 -1.723231
v -0.000000 -1.060608 -2.812914
v -0.000000 -1.102741 2.299545
v -0.000000 -1.179166 4.215651
v -0.000000 -1.038882 -3.318644
v -0.000000 -0.980385 -4.680334
v 1.369150 -0.980385 -4.680334
v -0.000000 -0.947233 -5.947556
v -0.000000 -0.354279 4.987550
v 0.759492 1.719673 1.285986
v 1.313583 1.672574 1.160672
v -0.000000 1.755462 1.317233
v -0.000000 0.848549 2.559267
v -0.000000 0.781729 3.386213
v 0.751321 0.819942 2.503842
v -0.000000 0.691737 4.137080
v -0.000001 -0.538827 -6.070991
v -0.000001 -0.838537 -6.053167
v -0.000000 0.091313 -1.942428
v 1.348389 -0.137516 -4.284152
v 1.340307 -0.490380 -4.594252
v 1.348389 -0.014770 -3.787676
v 1.348389 -0.128215 -3.309482
v 1.348389 -0.560514 -2.901009
v 1.348390 -0.602648 2.344890
v 1.348390 -0.492136 4.083759
v -1.844183 0.555674 3.307363
v -1.630347 0.613718 3.317767
v -1.649315 0.769435 2.186136
v -1.831515 0.650498 2.006626
v -1.279309 1.761531 -1.556087
v -1.274057 1.779269 -0.282012
v -1.329838 1.685400 -1.681037
v -1.825042 0.813838 -5.824382
v -1.940041 0.420567 -3.770809
v -1.820717 0.828622 -1.934795
v -1.580424 1.099988 1.706483
v -1.715770 0.741656 2.079850
v -1.337384 1.632522 1.262211
v -1.392627 1.615091 1.061727
v -1.940040 0.265654 -2.506682
v -1.940040 0.243640 -1.674704
v -1.940040 0.241870 1.207321
v -1.920544 -0.136292 1.209228
v -1.920015 -0.144541 2.212877
v -1.940039 0.244713 2.635345
v -1.921670 -0.113144 -1.606571
v -1.923533 -0.101848 -2.713909
v -1.940041 0.280152 -4.437895
v -1.940042 0.214519 -5.822946
v -1.940040 0.258188 -3.129097
v -1.820757 0.127270 4.501324
v -1.621227 0.094869 4.755195
v -1.595138 0.308193 4.655339
v -1.814676 0.300487 4.441597
v -1.849406 0.674998 1.202307
v -1.820717 0.825003 -1.780200
v -1.922100 -0.145742 -5.822856
v -1.917273 -0.147202 -4.889290
v -1.723424 -0.371783 4.705365
v -1.871067 -0.400312 4.423343
v -1.979163 -0.457103 4.561934
v -1.781434 -0.457204 4.792406
v -2.091420 -0.394174 -4.731017
v -1.979321 -0.404256 -5.822896
v -2.114187 0.014363 -4.326967
v -2.114187 0.137109 -3.787675
v -2.114187 0.023664 -3.243069
v -2.097679 -0.408636 -2.798087
v -2.095816 -0.414456 -1.606605
v -2.094690 -0.437604 1.209194
v -2.094162 -0.450768 2.248992
v -2.114186 -0.007361 2.641737
v -2.114186 0.164818 3.268656
v -1.940039 0.400966 3.291412
v -2.081411 -0.034927 3.885499
v -1.907264 0.159672 4.033887
v -1.884660 -0.190033 4.277098
v -2.045214 -0.419047 4.190317
v -2.091420 -0.490380 -4.594252
v -1.979346 -0.500514 -5.822896
v -2.114187 -0.137516 -4.284152
v -2.114187 -0.014770 -3.787675
v -2.114187 -0.128215 -3.309481
v -2.097679 -0.560515 -2.901008
v -2.095816 -0.566336 -1.606605
v -2.094690 -0.589483 1.209194
v -2.094162 -0.602647 2.344890
v -2.114186 -0.159240 2.713182
v -2.114186 0.012938 3.268656
v -2.081411 -0.145048 3.785641
v -2.045214 -0.492136 4.083759
v -1.901739 -0.996164 4.186872
v -1.898255 -0.984061 4.305789
v -2.013977 -1.060608 -2.812914
v -1.404092 0.100458 4.816375
v -1.403749 0.314523 4.716949
v -1.390259 0.478080 4.602508
v -1.188979 0.494497 4.700081
v -1.181079 0.589469 4.479824
v -1.367167 0.532874 4.409075
v -1.829488 -0.945623 4.572277
v -1.635343 -0.866574 4.779349
v -1.418328 1.657613 0.336549
v -1.480984 1.568564 0.858111
v -1.279309 1.730251 1.014454
v -1.458668 1.610972 -1.613993
v -1.423833 1.674576 -1.524947
v -1.821639 -0.186953 4.597092
v -1.872033 0.292783 4.065645
v -1.187026 0.106864 4.886479
v -1.742396 0.485159 4.310483
v -1.629423 0.537768 4.216407
v -1.611695 0.549028 4.068193
v -1.795162 0.499416 4.026733
v -1.404094 -0.367523 4.893740
v -1.168928 -0.363021 4.954465
v -1.576607 0.471005 4.522343
v -1.534127 0.526507 4.364621
v -1.347951 -0.438922 5.032880
v -1.242926 -0.754573 5.002065
v -1.469805 0.560244 4.079933
v -1.504533 0.637428 3.283745
v -1.310885 0.646711 4.089947
v -1.385577 0.728776 3.291186
v -1.504128 0.784837 2.292443
v -1.646672 -1.084709 4.575305
v -1.722711 -1.121984 4.334514
v -1.722546 -1.135315 4.211349
v -1.201070 -1.135315 4.211349
v -1.052780 -0.963609 4.955895
v -1.445530 -1.028544 4.774806
v -1.861292 0.210792 -5.901607
v -1.843757 -0.145619 -5.901607
v -1.900924 -0.404983 -5.901642
v -1.900924 -0.501189 -5.901642
v -2.017804 -0.538152 -5.992247
v -1.900924 -0.538827 -6.070991
v -2.129877 -0.980385 -4.680334
v -2.017804 -0.837863 -5.974417
v -1.900924 -0.838537 -6.053167
v -2.017804 -0.946559 -5.868832
v -1.900924 -0.947233 -5.947576
v -1.295095 0.145899 -4.469095
v -1.295095 0.395297 -3.909703
v -1.295094 0.167335 -3.291255
v -1.147641 0.039672 -4.315896
v -1.147641 0.212060 -3.909703
v -1.147641 0.039894 -3.389668
v -1.533077 1.483758 1.048925
v -1.352014 -1.060608 -2.812914
v -1.369151 -0.980385 -4.680334
v -1.313583 1.672574 1.160672
v -0.759492 1.719673 1.285986
v -0.751321 0.819942 2.503842
v -1.348390 -0.137516 -4.284152
v -1.340307 -0.490380 -4.594252
v -1.348390 -0.014770 -3.787676
v -1.348390 -0.128215 -3.309482
v -1.348390 -0.560514 -2.901009
v -1.348389 -0.602648 2.344890
v -1.348389 -0.492136 4.083759
v 1.913571 0.875789 1.711862
v 1.743117 0.875789 1.711862
v 1.828660 0.655966 1.711864
v 2.385049 0.629701 1.476012
v 1.910560 0.655966 1.711365
v 1.877169 0.629701 1.596851
v 1.828660 0.629701 1.597731
v 1.877146 0.875789 1.597731
v 1.743117 0.875789 1.597731
v 1.962868 1.007554 1.694396
v 1.926443 1.028854 1.585181
v 2.433958 0.979946 1.465997
v 2.385049 1.028854 1.476012
v 2.357302 1.007554 1.558190
v 2.405008 0.958646 1.542778
v 2.405008 0.704874 1.542778
v 2.357302 0.655966 1.558190
v 2.433958 0.678610 1.465997
v -2.433958 0.979946 1.465999
v -2.405007 0.958646 1.542778
v -2.357302 1.007554 1.558190
v -2.433958 0.678610 1.465999
v -2.405007 0.704874 1.542778
v -2.385049 0.629701 1.476012
v -2.357302 0.655966 1.558190
v -1.910560 0.655966 1.711365
v -1.926443 1.028854 1.585181
v -1.877146 0.875789 1.597731
v -1.877169 0.629701 1.596853
v -1.828660 0.655966 1.711864
v -1.913571 0.875789 1.711864
v -1.743117 0.875789 1.711864
v -1.828660 0.629701 1.597731
v -1.743117 0.875789 1.597731
v -1.962867 1.007554 1.694397
v -2.385049 1.028854 1.476012
vt 0.974656 0.489445
vt 0.995201 0.489445
vt 0.903813 0.489445
vt 0.024067 0.327898
vt 0.031451 0.321007
vt 0.040467 0.336311
vt 0.194800 0.337778
vt 0.194800 0.321007
vt 0.113412 0.294436
vt 0.113411 0.256140
vt 0.113410 0.207136
vt 0.262510 0.207133
vt 0.262511 0.294432
vt 0.362676 0.207126
vt 0.376442 0.232578
vt 0.427116 0.255172
vt 0.483139 0.234524
vt 0.508743 0.207131
vt 0.606203 0.207135
vt 0.606203 0.294432
vt 0.647540 0.176555
vt 0.646745 0.016220
vt 0.745557 0.016220
vt 0.745557 0.049089
vt 0.764605 0.063602
vt 0.877750 0.063602
vt 0.893653 0.049089
vt 0.893653 0.016220
vt 0.995201 0.014570
vt 0.993661 0.176555
vt 0.598057 0.576166
vt 0.598057 0.516775
vt 0.340448 0.516876
vt 0.340448 0.576267
vt 0.240695 0.516923
vt 0.240695 0.576314
vt 0.520140 0.697301
vt 0.598057 0.697271
vt 0.340448 0.697301
vt 0.994339 0.342194
vt 0.995201 0.489445
vt 0.903813 0.489445
vt 0.902236 0.342356
vt 0.757461 0.789098
vt 0.800539 0.803090
vt 0.840633 0.790251
vt 0.024067 0.327898
vt 0.040467 0.336311
vt 0.031451 0.321007
vt 0.262511 0.294432
vt 0.262510 0.207133
vt 0.376442 0.232578
vt 0.362676 0.207126
vt 0.606203 0.207135
vt 0.508743 0.207131
vt 0.483139 0.234524
vt 0.606203 0.294432
vt 0.427116 0.255172
vt 0.995201 0.014570
vt 0.893653 0.016220
vt 0.893653 0.049089
vt 0.877750 0.063602
vt 0.764605 0.063602
vt 0.745557 0.049089
vt 0.745557 0.016220
vt 0.646745 0.016220
vt 0.598057 0.576166
vt 0.340448 0.576267
vt 0.340448 0.516876
vt 0.598057 0.516775
vt 0.240695 0.576314
vt 0.240695 0.516923
vt 0.598057 0.697271
vt 0.994339 0.342194
vt 0.902236 0.342356
vt 0.757461 0.789098
vt 0.840633 0.790251
vt 0.800539 0.803090
vt 0.262510 0.207133
vt 0.113410 0.207136
vt 0.113412 0.294436
vt 0.113410 0.207136
vt 0.113411 0.256140
vt 0.113412 0.294436
vt 0.995201 0.489445
vt 0.994339 0.342194
vt 0.903813 0.489445
vt 0.338901 0.318306
vt 0.431669 0.309437
vt 0.444204 0.343910
vt 0.338698 0.338705
vt 0.809695 0.374185
vt 0.812464 0.489445
vt 0.693259 0.489445
vt 0.693219 0.374751
vt 0.824676 0.369904
vt 0.827050 0.489445
vt 0.738450 0.842966
vt 0.797876 0.858567
vt 0.623949 0.897771
vt 0.680812 0.843683
vt 0.502302 0.330384
vt 0.569426 0.349318
vt 0.551032 0.369336
vt 0.461036 0.318367
vt 0.603767 0.841568
vt 0.336878 0.841399
vt 0.204636 0.841672
vt 0.243759 0.804273
vt 0.336701 0.805066
vt 0.597457 0.807290
vt 0.700002 0.808375
vt 0.859651 0.845076
vt 0.987913 0.838770
vt 0.988046 0.896351
vt 0.930080 0.242028
vt 0.913466 0.243754
vt 0.915830 0.215468
vt 0.936952 0.213811
vt 0.337342 0.883012
vt 0.262489 0.881051
vt 0.613536 0.897423
vt 0.901452 0.804018
vt 0.987905 0.804158
vt 0.814821 0.347575
vt 0.812346 0.333844
vt 0.841820 0.330936
vt 0.851411 0.346418
vt 0.886795 0.780290
vt 0.987908 0.779321
vt 0.849379 0.819540
vt 0.799438 0.831333
vt 0.749004 0.820434
vt 0.707797 0.778900
vt 0.597460 0.778341
vt 0.336704 0.776117
vt 0.240414 0.774853
vt 0.204044 0.817453
vt 0.145988 0.833996
vt 0.143881 0.856684
vt 0.088866 0.814805
vt 0.075125 0.833501
vt 0.052602 0.799903
vt 0.880431 0.329171
vt 0.874130 0.771047
vt 0.987908 0.770073
vt 0.845414 0.804948
vt 0.799438 0.816741
vt 0.755155 0.805842
vt 0.717328 0.764309
vt 0.597460 0.763749
vt 0.336704 0.761526
vt 0.231533 0.760261
vt 0.197428 0.802861
vt 0.145988 0.819404
vt 0.098113 0.804225
vt 0.070506 0.770878
vt 0.060638 0.777900
vt 0.865660 0.266317
vt 0.889577 0.318368
vt 0.854266 0.270912
vt 0.597460 0.715702
vt 0.709170 0.716261
vt 0.336704 0.713478
vt 0.235733 0.712214
vt 0.915077 0.196800
vt 0.936757 0.193776
vt 0.221079 0.364611
vt 0.240148 0.365843
vt 0.236078 0.383616
vt 0.215324 0.383386
vt 0.798035 0.289963
vt 0.826843 0.280364
vt 0.417515 0.977417
vt 0.474797 0.989105
vt 0.354738 0.984396
vt 0.369216 0.968862
vt 0.602861 0.977102
vt 0.591749 0.985908
vt 0.589898 0.979047
vt 0.598145 0.972936
vt 0.623758 0.897771
vt 0.627219 0.489445
vt 0.557948 0.489401
vt 0.575541 0.374246
vt 0.959839 0.239185
vt 0.954275 0.268330
vt 0.918675 0.283710
vt 0.039059 0.779700
vt 0.022969 0.800199
vt 0.012942 0.782441
vt 0.142404 0.871547
vt 0.072183 0.846290
vt 0.177129 0.382206
vt 0.211120 0.485445
vt 0.172855 0.485444
vt 0.234030 0.488851
vt 0.246224 0.331131
vt 0.272703 0.324687
vt 0.270122 0.342135
vt 0.256266 0.341346
vt 0.075787 0.866142
vt 0.049511 0.864773
vt 0.040009 0.847260
vt 0.179880 0.361362
vt 0.202752 0.361758
vt 0.135958 0.359992
vt 0.134258 0.382424
vt 0.907212 0.277884
vt 0.243216 0.350746
vt 0.227845 0.347683
vt 0.226897 0.320577
vt 0.209362 0.342973
vt 0.980189 0.193903
vt 0.977930 0.227597
vt 0.773259 0.350583
vt 0.745499 0.351501
vt 0.762119 0.337769
vt 0.751542 0.303772
vt 0.269989 0.355753
vt 0.342509 0.351695
vt 0.271036 0.372048
vt 0.343817 0.365781
vt 0.438575 0.356756
vt 0.620539 0.236690
vt 0.620539 0.210899
vt 0.802689 0.210894
vt 0.794677 0.236659
vt 0.747563 0.197858
vt 0.802670 0.197852
vt 0.620539 0.258703
vt 0.773501 0.258663
vt 0.732543 0.279869
vt 0.620539 0.284304
vt 0.840616 0.251322
vt 0.813161 0.261071
vt 0.852611 0.245055
vt 0.780688 0.270014
vt 0.620537 0.342168
vt 0.620538 0.309407
vt 0.026306 0.681655
vt 0.026306 0.668126
vt 0.042039 0.668306
vt 0.121547 0.189152
vt 0.110737 0.133186
vt 0.279342 0.133177
vt 0.279342 0.140994
vt 0.279342 0.189144
vt 0.112324 0.100901
vt 0.279342 0.100891
vt 0.279342 0.075343
vt 0.096549 0.075356
vt 0.096549 0.066641
vt 0.279342 0.066628
vt 0.995198 0.897771
vt 0.987905 0.897771
vt 0.995198 0.838412
vt 0.995198 0.804170
vt 0.995201 0.779251
vt 0.995201 0.770008
vt 0.752214 0.968588
vt 0.637718 0.953368
vt 0.762981 0.959184
vt 0.773433 0.957927
vt 0.768360 0.971498
vt 0.653625 0.910565
vt 0.762612 0.931285
vt 0.773414 0.931572
vt 0.755691 0.919534
vt 0.770684 0.918626
vt 0.184579 0.967747
vt 0.158425 0.958480
vt 0.164216 0.929216
vt 0.193097 0.937499
vt 0.106146 0.951695
vt 0.106555 0.921871
vt 0.049255 0.957685
vt 0.044685 0.927910
vt 0.013632 0.966378
vt 0.007165 0.936073
vt 0.169683 0.983458
vt 0.149422 0.977475
vt 0.106441 0.972405
vt 0.053980 0.976695
vt 0.031298 0.982122
vt 0.861030 0.555982
vt 0.735733 0.557011
vt 0.753984 0.542036
vt 0.845577 0.542025
vt 0.805103 0.528164
vt 0.351546 0.960714
vt 0.708419 0.575999
vt 0.708419 0.516608
vt 0.608727 0.697301
vt 0.708419 0.697301
vt 0.240695 0.697301
vt 0.620539 0.198296
vt 0.065788 0.589542
vt 0.065395 0.697301
vt 0.754688 0.697301
vt 0.879264 0.696532
vt 0.879264 0.574461
vt 0.995199 0.697301
vt 0.987997 0.505769
vt 0.879264 0.506209
vt 0.995201 0.516255
vt 0.130099 0.485444
vt 0.547353 0.428847
vt 0.561076 0.371348
vt 0.544775 0.489117
vt 0.411703 0.489482
vt 0.336126 0.489393
vt 0.418946 0.422747
vt 0.620537 0.354973
vt 0.267099 0.488851
vt 0.952789 0.956780
vt 0.952789 0.972525
vt 0.952789 0.929495
vt 0.952789 0.915713
vt 0.974656 0.489445
vt 0.412853 0.025995
vt 0.370302 0.025259
vt 0.370296 0.093298
vt 0.412851 0.095365
vt 0.459180 0.025997
vt 0.459180 0.095367
vt 0.503701 0.026000
vt 0.503698 0.095370
vt 0.557579 0.026005
vt 0.557572 0.093879
vt 0.419522 0.110754
vt 0.367306 0.110780
vt 0.367341 0.178336
vt 0.419554 0.180123
vt 0.472205 0.110730
vt 0.472230 0.180101
vt 0.521178 0.110716
vt 0.521195 0.177118
vt 0.562627 0.110712
vt 0.562638 0.173833
vt 0.609238 0.160830
vt 0.622031 0.144595
vt 0.622024 0.097357
vt 0.603571 0.086303
vt 0.603577 0.026339
vt 0.321850 0.170777
vt 0.321819 0.110813
vt 0.725382 0.712422
vt 0.728899 0.753063
vt 0.863752 0.762044
vt 0.873659 0.709852
vt 0.325235 0.027867
vt 0.325229 0.096777
vt 0.729084 0.722803
vt 0.735762 0.762639
vt 0.867077 0.756934
vt 0.873909 0.716291
vt 0.759811 0.791311
vt 0.835399 0.792067
vt 0.798314 0.801286
vt 0.341198 0.978855
vt 0.350354 0.973367
vt 0.254765 0.890337
vt 0.289896 0.924374
vt 0.338901 0.318306
vt 0.338698 0.338705
vt 0.444204 0.343910
vt 0.431669 0.309437
vt 0.809695 0.374185
vt 0.693219 0.374751
vt 0.824676 0.369904
vt 0.987905 0.897771
vt 0.988046 0.896351
vt 0.797876 0.858567
vt 0.623949 0.897771
vt 0.502302 0.330384
vt 0.461036 0.318367
vt 0.551032 0.369336
vt 0.569426 0.349318
vt 0.680812 0.843683
vt 0.603767 0.841568
vt 0.336878 0.841399
vt 0.336701 0.805066
vt 0.243759 0.804273
vt 0.204636 0.841672
vt 0.597457 0.807290
vt 0.700002 0.808375
vt 0.859651 0.845076
vt 0.987913 0.838770
vt 0.738450 0.842966
vt 0.930080 0.242028
vt 0.936952 0.213811
vt 0.915830 0.215468
vt 0.913466 0.243754
vt 0.262489 0.881051
vt 0.337342 0.883012
vt 0.613536 0.897423
vt 0.987905 0.804158
vt 0.901452 0.804018
vt 0.814821 0.347575
vt 0.851411 0.346418
vt 0.841820 0.330936
vt 0.812346 0.333844
vt 0.886795 0.780290
vt 0.987908 0.779321
vt 0.849379 0.819540
vt 0.799438 0.831333
vt 0.749004 0.820434
vt 0.707797 0.778900
vt 0.597460 0.778341
vt 0.336704 0.776117
vt 0.240414 0.774853
vt 0.204044 0.817453
vt 0.145988 0.833996
vt 0.143881 0.856684
vt 0.088866 0.814805
vt 0.075125 0.833501
vt 0.052602 0.799903
vt 0.880431 0.329171
vt 0.874130 0.771047
vt 0.987908 0.770073
vt 0.845414 0.804948
vt 0.799438 0.816741
vt 0.755155 0.805842
vt 0.717328 0.764309
vt 0.597460 0.763749
vt 0.336704 0.761526
vt 0.231533 0.760261
vt 0.197428 0.802861
vt 0.145988 0.819404
vt 0.098113 0.804225
vt 0.070506 0.770878
vt 0.060638 0.777900
vt 0.865660 0.266317
vt 0.854266 0.270912
vt 0.889577 0.318368
vt 0.597460 0.715702
vt 0.709170 0.716261
vt 0.336704 0.713478
vt 0.235733 0.712214
vt 0.936757 0.193776
vt 0.915077 0.196800
vt 0.221079 0.364611
vt 0.215324 0.383386
vt 0.236078 0.383616
vt 0.240148 0.365843
vt 0.826843 0.280364
vt 0.798035 0.289963
vt 0.417515 0.977417
vt 0.369216 0.968862
vt 0.354738 0.984396
vt 0.474797 0.989105
vt 0.602861 0.977102
vt 0.598145 0.972936
vt 0.589898 0.979047
vt 0.591749 0.985908
vt 0.623758 0.897771
vt 0.575541 0.374246
vt 0.959839 0.239185
vt 0.918675 0.283710
vt 0.954275 0.268330
vt 0.039059 0.779700
vt 0.012942 0.782441
vt 0.022969 0.800199
vt 0.142404 0.871547
vt 0.072183 0.846290
vt 0.177129 0.382206
vt 0.246224 0.331131
vt 0.256266 0.341346
vt 0.270122 0.342135
vt 0.272703 0.324687
vt 0.040009 0.847260
vt 0.049511 0.864773
vt 0.075787 0.866142
vt 0.202752 0.361758
vt 0.135958 0.359992
vt 0.134258 0.382424
vt 0.179880 0.361362
vt 0.907212 0.277884
vt 0.227845 0.347683
vt 0.243216 0.350746
vt 0.226897 0.320577
vt 0.209362 0.342973
vt 0.980189 0.193903
vt 0.977930 0.227597
vt 0.773259 0.350583
vt 0.762119 0.337769
vt 0.745499 0.351501
vt 0.751542 0.303772
vt 0.269989 0.355753
vt 0.342509 0.351695
vt 0.271036 0.372048
vt 0.343817 0.365781
vt 0.438575 0.356756
vt 0.794677 0.236659
vt 0.802689 0.210894
vt 0.802670 0.197852
vt 0.747563 0.197858
vt 0.732543 0.279869
vt 0.773501 0.258663
vt 0.840616 0.251322
vt 0.813161 0.261071
vt 0.852611 0.245055
vt 0.780688 0.270014
vt 0.026306 0.681655
vt 0.042039 0.668306
vt 0.026306 0.668126
vt 0.121547 0.189152
vt 0.110737 0.133186
vt 0.112324 0.100901
vt 0.096549 0.075356
vt 0.096549 0.066641
vt 0.995198 0.897771
vt 0.995198 0.838412
vt 0.995198 0.804170
vt 0.995201 0.779251
vt 0.995201 0.770008
vt 0.752214 0.968588
vt 0.762981 0.959184
vt 0.637718 0.953368
vt 0.768360 0.971498
vt 0.773433 0.957927
vt 0.653625 0.910565
vt 0.762612 0.931285
vt 0.773414 0.931572
vt 0.755691 0.919534
vt 0.770684 0.918626
vt 0.184579 0.967747
vt 0.193097 0.937499
vt 0.164216 0.929216
vt 0.158425 0.958480
vt 0.106555 0.921871
vt 0.106146 0.951695
vt 0.044685 0.927910
vt 0.049255 0.957685
vt 0.007165 0.936073
vt 0.013632 0.966378
vt 0.169683 0.983458
vt 0.149422 0.977475
vt 0.106441 0.972405
vt 0.053980 0.976695
vt 0.031298 0.982122
vt 0.861030 0.555982
vt 0.845577 0.542025
vt 0.753984 0.542036
vt 0.735733 0.557011
vt 0.805103 0.528164
vt 0.351546 0.960714
vt 0.708419 0.575999
vt 0.708419 0.516608
vt 0.065788 0.589542
vt 0.879264 0.574461
vt 0.879264 0.506209
vt 0.987997 0.505769
vt 0.995201 0.516255
vt 0.561076 0.371348
vt 0.547353 0.428847
vt 0.418946 0.422747
vt 0.412853 0.025995
vt 0.412851 0.095365
vt 0.370296 0.093298
vt 0.370302 0.025259
vt 0.459180 0.025997
vt 0.459180 0.095367
vt 0.503701 0.026000
vt 0.503698 0.095370
vt 0.557579 0.026005
vt 0.557572 0.093879
vt 0.419522 0.110754
vt 0.419554 0.180123
vt 0.367341 0.178336
vt 0.367306 0.110780
vt 0.472205 0.110730
vt 0.472230 0.180101
vt 0.521178 0.110716
vt 0.521195 0.177118
vt 0.562627 0.110712
vt 0.562638 0.173833
vt 0.622024 0.097357
vt 0.622031 0.144595
vt 0.609238 0.160830
vt 0.603571 0.086303
vt 0.603577 0.026339
vt 0.321850 0.170777
vt 0.321819 0.110813
vt 0.725382 0.712422
vt 0.873659 0.709852
vt 0.863752 0.762044
vt 0.728899 0.753063
vt 0.325229 0.096777
vt 0.325235 0.027867
vt 0.729084 0.722803
vt 0.873909 0.716291
vt 0.867077 0.756934
vt 0.735762 0.762639
vt 0.835399 0.792067
vt 0.759811 0.791311
vt 0.798314 0.801286
vt 0.350354 0.973367
vt 0.341198 0.978855
vt 0.254765 0.890337
vt 0.289896 0.924374
vt 0.114179 0.759810
vt 0.087561 0.754221
vt 0.104789 0.722553
vt 0.198684 0.717418
vt 0.116540 0.725369
vt 0.117866 0.707190
vt 0.110790 0.704823
vt 0.167696 0.549298
vt 0.070684 0.502967
vt 0.167893 0.503475
vt 0.176926 0.503515
vt 0.192652 0.549409
vt 0.101716 0.775429
vt 0.082916 0.770174
vt 0.124955 0.777867
vt 0.121046 0.793228
vt 0.158075 0.577750
vt 0.061051 0.568136
vt 0.070296 0.577291
vt 0.187557 0.778571
vt 0.197053 0.787704
vt 0.206720 0.777260
vt 0.195212 0.771950
vt 0.195520 0.733283
vt 0.188478 0.726260
vt 0.207079 0.727873
vt 0.061344 0.512026
vt 0.206720 0.777260
vt 0.195212 0.771950
vt 0.187557 0.778571
vt 0.207079 0.727873
vt 0.195520 0.733283
vt 0.198684 0.717418
vt 0.061051 0.568136
vt 0.070684 0.502967
vt 0.061344 0.512026
vt 0.188478 0.726260
vt 0.116540 0.725369
vt 0.158075 0.577750
vt 0.167696 0.549298
vt 0.167893 0.503475
vt 0.104789 0.722553
vt 0.117866 0.707190
vt 0.114179 0.759810
vt 0.087561 0.754221
vt 0.110790 0.704823
vt 0.082916 0.770174
vt 0.101716 0.775429
vt 0.192652 0.549409
vt 0.176926 0.503515
vt 0.124955 0.777867
vt 0.121046 0.793228
vt 0.197053 0.787704
vt 0.070296 0.577291
vn 1.0000 0.0000 0.0000
vn 0.0000 1.0000 0.0000
vn -1.0000 0.0000 -0.0000
vn 0.0102 0.0000 0.9999
vn -0.9999 0.0082 -0.0152
vn -0.9979 0.0598 -0.0267
vn -0.9998 0.0202 -0.0044
vn -1.0000 0.0000 -0.0092
vn 0.0000 -1.0000 -0.0082
vn 0.0000 -0.9999 -0.0121
vn 0.0053 -0.0045 -1.0000
vn 0.0080 0.0000 -1.0000
vn -0.0102 0.0000 0.9999
vn 0.9999 0.0082 -0.0152
vn 0.9998 0.0201 -0.0044
vn 1.0000 0.0000 -0.0092
vn 0.9979 0.0598 -0.0267
vn -0.0080 0.0000 -1.0000
vn -0.0053 -0.0045 -1.0000
vn 0.6314 0.7728 0.0644
vn 0.8792 0.4658 0.0999
vn 0.5411 0.7988 0.2630
vn 0.2125 0.9706 0.1131
vn 0.2673 0.9368 -0.2256
vn 0.0000 0.9530 -0.3029
vn 0.0000 0.9999 0.0114
vn 0.3664 0.9304 0.0040
vn 0.3172 0.6410 -0.6989
vn -0.1147 0.6371 -0.7622
vn 0.0010 0.1432 -0.9897
vn -0.0000 0.5594 -0.8289
vn 0.9519 0.2753 0.1342
vn 0.9278 0.3731 0.0035
vn 0.6287 0.7776 0.0114
vn 0.9965 0.0830 0.0001
vn 0.7525 0.5902 0.2922
vn 0.7030 0.6901 0.1721
vn 0.5004 0.7838 0.3679
vn 0.7127 0.6380 0.2917
vn 0.9972 0.0747 0.0009
vn 0.9967 0.0814 0.0049
vn 0.9195 0.3730 -0.1239
vn 0.9460 0.2739 -0.1733
vn 0.9723 0.2338 0.0028
vn 0.9721 0.2346 0.0027
vn 0.9584 0.2579 0.1220
vn 0.9581 0.2595 -0.1214
vn 0.9252 0.0620 -0.3743
vn 0.8927 0.2290 -0.3882
vn 0.8841 0.1746 0.4335
vn 0.8349 0.3606 0.4157
vn 0.4812 0.4842 0.7307
vn 0.5201 0.2589 0.8139
vn 0.9570 0.2897 0.0152
vn 0.8751 0.4579 -0.1564
vn 0.9507 0.2880 -0.1149
vn 0.9065 0.0960 -0.4111
vn 0.6076 0.4661 0.6431
vn 0.6188 0.2896 0.7303
vn 0.8384 0.3819 0.3890
vn 0.7341 0.6023 0.3135
vn 0.9846 0.0997 -0.1437
vn 0.9042 0.0953 -0.4164
vn 0.9498 0.2633 -0.1689
vn 0.9525 0.3045 -0.0035
vn 0.9428 0.2841 0.1746
vn 0.9813 0.1754 0.0795
vn 0.9659 0.2589 0.0032
vn 0.9658 0.2594 0.0031
vn 0.9812 0.1739 -0.0841
vn 0.9243 0.3061 -0.2282
vn 0.9344 0.3548 0.0329
vn 0.8411 0.5407 0.0128
vn 0.9342 0.2560 0.2484
vn 0.9255 0.2868 0.2474
vn 0.9041 0.2076 0.3734
vn 0.9571 0.0896 0.2757
vn 0.7782 -0.2833 0.5605
vn 0.7689 0.5751 -0.2794
vn 0.7869 -0.5389 0.3007
vn 0.7641 -0.6451 0.0030
vn 0.7808 -0.5480 -0.3000
vn 0.7798 -0.3351 -0.5289
vn 0.9966 -0.0827 0.0004
vn 0.9966 -0.0827 -0.0004
vn 0.7829 -0.2992 0.5454
vn 0.7812 -0.5285 0.3322
vn 0.7849 -0.6189 0.0298
vn 0.7723 -0.5617 -0.2968
vn 0.7796 -0.4166 -0.4676
vn 0.6535 -0.5228 -0.5474
vn 0.8346 -0.5248 0.1671
vn 0.6463 -0.7631 -0.0029
vn 0.5303 -0.6639 -0.5273
vn 0.6465 -0.7628 -0.0074
vn 0.5258 -0.6469 0.5523
vn 0.2961 0.4727 0.8300
vn 0.2850 0.2834 0.9157
vn 0.3069 0.7868 0.5355
vn 0.2664 0.9369 0.2266
vn 0.1633 0.9457 0.2809
vn 0.1738 0.7104 0.6820
vn 0.5190 -0.3761 0.7676
vn 0.7235 -0.4808 0.4954
vn 0.7425 0.6699 0.0067
vn 0.3672 0.9193 0.1416
vn 0.8011 0.5974 0.0365
vn 0.7209 0.6879 -0.0847
vn 0.7831 0.5288 -0.3273
vn -0.0000 0.9995 0.0309
vn -0.0000 0.9897 0.1434
vn 0.8711 0.0342 0.4899
vn 0.9430 0.3017 0.1406
vn 0.1665 0.2857 0.9438
vn 0.0000 0.7237 0.6901
vn 0.0000 0.2810 0.9597
vn -0.0000 0.9530 0.3030
vn 0.6131 0.7469 0.2575
vn 0.6686 0.7306 0.1384
vn 0.1852 0.9785 0.0912
vn 0.2150 0.9722 0.0922
vn 0.3424 0.5128 0.7872
vn 0.1031 0.4993 0.8603
vn 0.1452 0.9676 0.2066
vn 0.3737 0.7836 0.4963
vn 0.2744 0.3612 0.8912
vn 0.2290 -0.2695 0.9354
vn 0.2762 0.9515 0.1353
vn 0.3868 0.9143 0.1199
vn 0.2721 0.9481 0.1646
vn 0.3368 0.9358 0.1041
vn 0.2474 0.9104 0.3315
vn -0.0000 -0.9766 0.2151
vn -0.0000 -0.9927 0.1203
vn 0.3638 -0.9151 0.1736
vn 0.3246 -0.8558 0.4029
vn 0.2344 -0.9050 -0.3550
vn 0.2587 -0.8107 -0.5252
vn -0.0000 -0.9464 0.3230
vn 0.2427 -0.7560 0.6080
vn 0.0936 -0.6447 0.7587
vn 0.0000 -0.6465 0.7629
vn 0.0000 0.3780 0.9258
vn 0.0000 -0.1482 0.9890
vn 0.2529 0.6555 -0.7116
vn 0.4056 0.0292 -0.9136
vn -0.0000 0.0000 -1.0000
vn -0.0000 0.7071 -0.7071
vn 0.3550 0.0284 -0.9344
vn 0.0000 0.0001 -1.0000
vn 0.4045 0.0463 -0.9134
vn 0.2764 0.7101 -0.6476
vn 0.0000 0.6257 -0.7801
vn 0.6212 0.7391 -0.2605
vn 0.7207 0.5181 -0.4606
vn 0.2358 0.5484 -0.8023
vn 0.6309 -0.6006 0.4912
vn 0.8017 -0.2673 -0.5346
vn 0.2622 -0.3731 -0.8900
vn 0.6466 -0.7266 -0.2323
vn 0.1569 -0.8880 -0.4323
vn -0.2979 0.9068 0.2984
vn -0.1530 0.9141 -0.3755
vn -0.3886 0.6767 -0.6253
vn -0.7670 0.4785 -0.4275
vn -0.6018 0.6845 -0.4115
vn -0.3946 0.9185 -0.0273
vn -0.7963 0.6044 -0.0239
vn -0.3848 0.7697 0.5094
vn -0.7629 0.5385 0.3576
vn -0.1194 0.9535 0.2769
vn -0.6275 0.7142 0.3100
vn -0.4624 0.8594 -0.2183
vn -0.9215 0.3149 -0.2273
vn -0.9167 0.3995 -0.0134
vn -0.9114 0.3503 0.2160
vn -0.4246 0.8831 0.1997
vn 0.8261 0.5516 0.1152
vn 0.2501 -0.9205 -0.3001
vn 0.0000 -1.0000 -0.0066
vn -0.0000 -1.0000 -0.0065
vn -0.0000 -1.0000 -0.0048
vn 0.0000 -0.9997 -0.0239
vn -0.0000 -0.9999 -0.0102
vn 0.2823 -0.9151 0.2880
vn 0.0000 -0.9998 -0.0186
vn -0.0000 -0.9996 0.0266
vn -0.0000 -0.9991 -0.0429
vn 0.0000 -0.9994 -0.0349
vn 0.5228 -0.6438 0.5588
vn 0.0000 -0.9161 -0.4009
vn 0.0000 0.4710 0.8822
vn 0.0941 0.9118 0.3997
vn 0.4380 0.8666 0.2392
vn 0.0000 0.9027 0.4303
vn -0.0000 0.9401 0.3409
vn -0.0000 0.9952 0.0983
vn 0.0905 0.9382 0.3342
vn -0.0000 0.9865 0.1638
vn 0.0000 0.6023 -0.7983
vn 0.0000 -0.4034 -0.9150
vn 0.0000 0.8947 -0.4468
vn 0.6377 -0.6611 0.3953
vn 0.6648 -0.3083 0.6804
vn 0.6578 -0.7532 0.0036
vn 0.6456 -0.6613 -0.3818
vn 0.6512 -0.3370 -0.6800
vn 0.6483 -0.6330 0.4230
vn 0.6461 -0.2914 0.7055
vn 0.6465 -0.7629 0.0015
vn 0.6494 -0.6365 -0.4160
vn 0.6180 -0.3985 -0.6777
vn -0.6314 0.7728 0.0644
vn -0.2125 0.9706 0.1131
vn -0.5411 0.7988 0.2630
vn -0.8792 0.4658 0.0999
vn -0.2673 0.9368 -0.2256
vn -0.3664 0.9304 0.0040
vn -0.3172 0.6410 -0.6989
vn 0.1147 0.6371 -0.7622
vn -0.6213 0.7390 -0.2605
vn -0.8927 0.2290 -0.3882
vn -0.9278 0.3731 0.0035
vn -0.6287 0.7776 0.0114
vn -0.7525 0.5902 0.2922
vn -0.7127 0.6380 0.2917
vn -0.5004 0.7838 0.3679
vn -0.7030 0.6901 0.1721
vn -0.9965 0.0830 0.0001
vn -0.9972 0.0747 0.0009
vn -0.9967 0.0814 0.0049
vn -0.9723 0.2338 0.0028
vn -0.9460 0.2739 -0.1733
vn -0.9195 0.3730 -0.1239
vn -0.9721 0.2346 0.0027
vn -0.9584 0.2579 0.1220
vn -0.9581 0.2595 -0.1214
vn -0.9252 0.0620 -0.3743
vn -0.9519 0.2753 0.1342
vn -0.8841 0.1746 0.4335
vn -0.5201 0.2589 0.8139
vn -0.4812 0.4842 0.7307
vn -0.8349 0.3606 0.4157
vn -0.9570 0.2897 0.0152
vn -0.8751 0.4579 -0.1564
vn -0.9065 0.0960 -0.4111
vn -0.9507 0.2880 -0.1149
vn -0.6076 0.4661 0.6431
vn -0.7341 0.6023 0.3135
vn -0.8384 0.3819 0.3890
vn -0.6188 0.2896 0.7303
vn -0.9846 0.0997 -0.1437
vn -0.9042 0.0953 -0.4164
vn -0.9498 0.2633 -0.1689
vn -0.9525 0.3045 -0.0035
vn -0.9428 0.2841 0.1746
vn -0.9813 0.1754 0.0795
vn -0.9659 0.2589 0.0032
vn -0.9658 0.2594 0.0031
vn -0.9812 0.1739 -0.0841
vn -0.9243 0.3061 -0.2282
vn -0.9344 0.3548 0.0329
vn -0.8411 0.5407 0.0128
vn -0.9342 0.2560 0.2484
vn -0.9255 0.2868 0.2474
vn -0.9041 0.2076 0.3734
vn -0.9571 0.0896 0.2757
vn -0.7782 -0.2833 0.5605
vn -0.7689 0.5751 -0.2794
vn -0.7869 -0.5389 0.3007
vn -0.7641 -0.6451 0.0030
vn -0.7808 -0.5480 -0.3000
vn -0.7798 -0.3351 -0.5289
vn -0.9966 -0.0827 0.0004
vn -0.9966 -0.0827 -0.0004
vn -0.7829 -0.2992 0.5454
vn -0.7812 -0.5285 0.3322
vn -0.7849 -0.6189 0.0298
vn -0.7723 -0.5617 -0.2968
vn -0.7796 -0.4166 -0.4676
vn -0.6535 -0.5228 -0.5474
vn -0.8346 -0.5248 0.1671
vn -0.6463 -0.7631 -0.0043
vn -0.5303 -0.6639 -0.5273
vn -0.6465 -0.7628 -0.0074
vn -0.5258 -0.6469 0.5523
vn -0.2850 0.2834 0.9157
vn -0.2961 0.4727 0.8300
vn -0.3069 0.7868 0.5355
vn -0.1738 0.7104 0.6820
vn -0.1633 0.9457 0.2809
vn -0.2664 0.9369 0.2266
vn -0.7235 -0.4808 0.4954
vn -0.5190 -0.3761 0.7676
vn -0.7425 0.6699 0.0067
vn -0.8011 0.5974 0.0365
vn -0.3672 0.9193 0.1416
vn -0.7831 0.5288 -0.3273
vn -0.7209 0.6879 -0.0847
vn -0.8711 0.0342 0.4899
vn -0.9430 0.3017 0.1406
vn -0.1665 0.2857 0.9438
vn -0.6131 0.7469 0.2575
vn -0.2150 0.9722 0.0922
vn -0.1852 0.9785 0.0912
vn -0.6686 0.7306 0.1384
vn -0.3424 0.5128 0.7872
vn -0.1031 0.4993 0.8603
vn -0.3737 0.7836 0.4963
vn -0.1452 0.9676 0.2066
vn -0.2744 0.3612 0.8912
vn -0.2290 -0.2695 0.9354
vn -0.2762 0.9515 0.1353
vn -0.3868 0.9143 0.1199
vn -0.2721 0.9481 0.1646
vn -0.3368 0.9358 0.1041
vn -0.2474 0.9104 0.3315
vn -0.3246 -0.8558 0.4029
vn -0.3638 -0.9151 0.1736
vn -0.2587 -0.8107 -0.5252
vn -0.2344 -0.9050 -0.3550
vn -0.0936 -0.6447 0.7587
vn -0.2427 -0.7560 0.6080
vn -0.2529 0.6555 -0.7116
vn -0.4056 0.0292 -0.9136
vn -0.3550 0.0284 -0.9344
vn -0.4045 0.0463 -0.9134
vn -0.2764 0.7101 -0.6476
vn -0.7207 0.5181 -0.4606
vn -0.2358 0.5484 -0.8023
vn -0.6309 -0.6006 0.4912
vn -0.8017 -0.2673 -0.5346
vn -0.2622 -0.3731 -0.8900
vn -0.6466 -0.7266 -0.2323
vn -0.1569 -0.8880 -0.4323
vn 0.2979 0.9068 0.2984
vn 0.1530 0.9141 -0.3755
vn 0.6018 0.6845 -0.4115
vn 0.7670 0.4785 -0.4275
vn 0.3886 0.6767 -0.6253
vn 0.7963 0.6045 -0.0236
vn 0.3946 0.9185 -0.0273
vn 0.7629 0.5386 0.3575
vn 0.3848 0.7697 0.5094
vn 0.6275 0.7142 0.3100
vn 0.1194 0.9535 0.2769
vn 0.4624 0.8594 -0.2183
vn 0.9215 0.3149 -0.2273
vn 0.9167 0.3995 -0.0134
vn 0.9114 0.3503 0.2160
vn 0.4246 0.8831 0.1997
vn -0.8261 0.5516 0.1152
vn -0.2501 -0.9205 -0.3001
vn -0.2823 -0.9151 0.2880
vn -0.5228 -0.6438 0.5588
vn -0.4380 0.8666 0.2392
vn -0.0941 0.9118 0.3997
vn -0.0905 0.9382 0.3342
vn -0.6377 -0.6611 0.3953
vn -0.6648 -0.3083 0.6804
vn -0.6578 -0.7532 0.0036
vn -0.6456 -0.6613 -0.3818
vn -0.6512 -0.3370 -0.6800
vn -0.6483 -0.6330 0.4230
vn -0.6461 -0.2914 0.7055
vn -0.6465 -0.7629 0.0015
vn -0.6494 -0.6365 -0.4160
vn -0.6180 -0.3985 -0.6777
vn -0.0945 0.3669 0.9254
vn 0.0000 0.7947 0.6070
vn 0.0200 -0.5603 0.8280
vn 0.3127 -0.8041 -0.5056
vn 0.1198 -0.6319 0.7657
vn -0.0652 -0.8135 -0.5779
vn -0.0085 -0.7057 -0.7084
vn -0.4104 0.4865 -0.7713
vn 0.0000 0.7858 -0.6185
vn -0.2318 0.6044 0.7622
vn -0.5935 0.7020 -0.3937
vn 0.7440 0.3562 -0.5654
vn 0.2916 0.7931 -0.5348
vn 0.3812 0.6050 0.6990
vn 0.7014 0.1929 0.6862
vn 0.7026 -0.1929 0.6849
vn 0.3995 -0.5715 0.7167
vn 0.7515 -0.3725 -0.5446
vn -0.7440 0.3562 -0.5654
vn -0.7013 0.1929 0.6862
vn -0.3812 0.6050 0.6990
vn -0.7515 -0.3725 -0.5446
vn -0.7026 -0.1929 0.6849
vn -0.3127 -0.8041 -0.5056
vn -0.3995 -0.5716 0.7167
vn -0.1198 -0.6319 0.7657
vn 0.5935 0.7020 -0.3937
vn 0.4104 0.4865 -0.7713
vn 0.0652 -0.8135 -0.5779
vn -0.0200 -0.5603 0.8280
vn 0.0945 0.3669 0.9254
vn 0.0085 -0.7057 -0.7084
vn 0.2318 0.6044 0.7622
vn -0.2916 0.7931 -0.5348
usemtl Pickup.002
s off
f 1/1/1 2/2/1 3/3/1
f 4/4/2 5/5/2 6/6/2
f 7/7/2 6/6/2 5/5/2
f 5/5/2 8/8/2 7/7/2
f 7/9/3 9/10/3 10/11/3
f 11/12/4 6/13/4 7/9/4
f 7/9/4 10/11/4 11/12/4
f 11/12/5 12/14/5 13/15/5
f 11/12/6 13/15/6 14/16/6
f 15/17/3 16/18/3 17/19/3
f 15/17/3 17/19/3 18/20/3
f 14/16/3 15/17/3 18/20/3
f 14/16/7 18/20/7 6/13/7
f 11/12/8 14/16/8 6/13/8
f 19/21/2 17/22/2 16/23/2
f 19/21/2 16/23/2 20/24/2
f 19/21/2 20/24/2 21/25/2
f 19/21/2 21/25/2 22/26/2
f 23/27/2 12/28/2 11/29/2
f 22/26/2 23/27/2 11/29/2
f 19/21/2 22/26/2 11/29/2
f 19/21/2 11/29/2 10/30/2
f 24/31/9 25/32/9 26/33/9
f 26/33/9 27/34/9 24/31/9
f 27/34/10 26/33/10 28/35/10
f 28/35/10 29/36/10 27/34/10
f 30/37/9 31/38/9 24/31/9
f 24/31/9 27/34/9 32/39/9
f 30/37/9 24/31/9 32/39/9
f 17/40/11 19/41/11 33/42/11
f 33/42/12 18/43/12 17/40/12
f 34/44/1 35/45/1 36/46/1
f 37/47/2 38/48/2 39/49/2
f 7/7/2 8/8/2 39/49/2
f 39/49/2 38/48/2 7/7/2
f 38/50/13 40/51/13 7/9/13
f 41/52/14 42/53/14 40/51/14
f 43/54/1 44/55/1 45/56/1
f 46/57/1 43/54/1 45/56/1
f 46/57/1 45/56/1 47/58/1
f 38/50/15 46/57/15 47/58/15
f 40/51/16 38/50/16 47/58/16
f 41/52/17 40/51/17 47/58/17
f 19/21/2 10/30/2 40/59/2
f 40/59/2 42/60/2 48/61/2
f 40/59/2 48/61/2 49/62/2
f 19/21/2 40/59/2 49/62/2
f 19/21/2 49/62/2 50/63/2
f 19/21/2 50/63/2 51/64/2
f 19/21/2 51/64/2 44/65/2
f 19/21/2 44/65/2 43/66/2
f 52/67/9 53/68/9 54/69/9
f 54/69/9 55/70/9 52/67/9
f 53/68/10 56/71/10 57/72/10
f 57/72/10 54/69/10 53/68/10
f 52/67/9 58/73/9 30/37/9
f 52/67/9 30/37/9 32/39/9
f 52/67/9 32/39/9 53/68/9
f 43/74/18 46/75/18 33/42/18
f 59/76/3 60/77/3 61/78/3
f 62/79/13 63/80/13 64/81/13
f 65/82/1 66/83/1 67/84/1
f 68/85/19 69/86/19 70/87/19
s 1
f 71/88/20 72/89/21 73/90/22
f 73/90/22 74/91/23 71/88/20
f 75/92/24 76/93/25 77/94/26
f 77/94/26 78/95/27 75/92/24
f 79/96/28 18/43/29 33/42/30
f 33/42/30 80/97/31 79/96/28
f 81/98/32 82/99/33 83/100/34
f 83/100/34 84/101/35 81/98/32
f 85/102/36 86/103/37 87/104/38
f 85/102/36 87/104/38 73/90/22
f 85/102/36 73/90/22 88/105/39
f 75/92/24 79/96/28 80/97/31
f 80/97/31 76/93/25 75/92/24
f 84/101/35 83/100/34 89/106/40
f 90/107/41 91/108/42 92/109/43
f 92/109/43 93/110/44 90/107/41
f 94/111/45 89/106/40 90/107/41
f 90/107/41 93/110/44 94/111/45
f 84/101/35 89/106/40 94/111/45
f 94/111/45 95/112/46 84/101/35
f 96/113/47 97/114/48 98/115/49
f 98/115/49 82/99/33 96/113/47
f 81/98/32 84/101/35 95/112/46
f 99/116/50 100/117/51 101/118/52
f 101/118/52 102/119/53 99/116/50
f 90/107/41 103/120/54 72/121/21
f 72/121/21 91/108/42 90/107/41
f 89/106/40 83/100/34 104/122/55
f 97/114/48 96/113/47 105/123/56
f 105/123/56 106/124/57 97/114/48
f 107/125/58 108/126/59 109/127/60
f 109/127/60 110/128/61 107/125/58
f 111/129/62 112/130/63 106/124/57
f 106/124/57 105/123/56 111/129/62
f 113/131/64 111/129/62 105/123/56
f 105/123/56 96/113/47 113/131/64
f 114/132/65 113/131/64 96/113/47
f 96/113/47 82/99/33 114/132/65
f 115/133/66 114/132/65 82/99/33
f 82/99/33 81/98/32 115/133/66
f 116/134/67 115/133/66 81/98/32
f 81/98/32 95/112/46 116/134/67
f 117/135/68 116/134/67 95/112/46
f 95/112/46 94/111/45 117/135/68
f 118/136/69 117/135/68 94/111/45
f 94/111/45 93/110/44 118/136/69
f 119/137/70 118/136/69 93/110/44
f 93/110/44 92/109/43 119/137/70
f 120/138/71 119/137/70 92/109/43
f 92/109/43 91/108/42 120/138/71
f 121/139/72 120/138/71 91/108/42
f 91/108/42 122/140/73 121/139/72
f 123/141/74 121/139/72 122/140/73
f 122/140/73 124/142/75 123/141/74
f 124/142/75 125/143/76 123/141/74
f 110/128/61 109/127/60 126/144/77
f 127/145/78 128/146/79 112/130/63
f 112/130/63 111/129/62 127/145/78
f 129/147/80 127/145/78 111/129/62
f 111/129/62 113/131/64 129/147/80
f 130/148/81 129/147/80 113/131/64
f 113/131/64 114/132/65 130/148/81
f 131/149/82 130/148/81 114/132/65
f 114/132/65 115/133/66 131/149/82
f 132/150/83 131/149/82 115/133/66
f 115/133/66 116/134/67 132/150/83
f 133/151/84 132/150/83 116/134/67
f 116/134/67 117/135/68 133/151/84
f 134/152/85 133/151/84 117/135/68
f 117/135/68 118/136/69 134/152/85
f 135/153/86 134/152/85 118/136/69
f 118/136/69 119/137/70 135/153/86
f 136/154/87 135/153/86 119/137/70
f 119/137/70 120/138/71 136/154/87
f 137/155/88 136/154/87 120/138/71
f 120/138/71 121/139/72 137/155/88
f 138/156/89 137/155/88 121/139/72
f 121/139/72 123/141/74 138/156/89
f 139/157/90 138/156/89 123/141/74
f 123/141/74 126/158/77 139/157/90
f 140/159/91 139/160/90 126/144/77
f 126/144/77 141/161/92 140/159/91
f 25/162/93 142/163/94 132/150/83
f 132/150/83 133/151/84 25/162/93
f 26/164/95 25/162/93 133/151/84
f 133/151/84 134/152/85 26/164/95
f 28/165/96 26/164/95 134/152/85
f 134/152/85 135/153/86 28/165/96
f 102/119/53 101/118/52 143/166/97
f 143/166/97 144/167/98 102/119/53
f 145/168/99 146/169/100 147/170/101
f 147/170/101 148/171/102 145/168/99
f 109/127/60 108/126/59 149/172/103
f 149/172/103 150/173/104 109/127/60
f 109/127/60 141/161/92 126/144/77
f 109/127/60 150/173/104 141/161/92
f 151/174/105 78/175/27 152/176/106
f 152/176/106 153/177/107 151/174/105
f 79/178/28 75/179/24 154/180/108
f 154/180/108 155/181/109 79/178/28
f 155/181/109 104/122/55 18/182/29
f 18/182/29 79/178/28 155/181/109
f 151/174/105 153/177/107 104/122/55
f 89/106/40 104/122/55 103/120/54
f 103/120/54 90/107/41 89/106/40
f 156/183/110 157/184/111 152/185/106
f 152/185/106 78/95/27 77/94/26
f 156/183/110 152/185/106 77/94/26
f 151/174/105 154/180/108 75/179/24
f 75/179/24 78/175/27 151/174/105
f 158/186/112 125/187/76 124/188/75
f 124/188/75 99/116/50 158/186/112
f 110/189/61 125/143/76 158/190/112
f 158/190/112 107/191/58 110/189/61
f 126/158/77 123/141/74 125/143/76
f 125/143/76 110/189/61 126/158/77
f 71/192/20 122/140/73 91/108/42
f 91/108/42 72/121/21 71/192/20
f 159/193/113 124/142/75 122/140/73
f 160/194/114 148/171/102 161/195/115
f 161/195/115 162/196/116 160/194/114
f 148/171/102 147/170/101 163/197/117
f 163/197/117 161/195/115 148/171/102
f 164/198/118 165/199/119 166/200/120
f 166/200/120 167/201/121 164/198/118
f 159/193/113 165/202/119 164/203/118
f 164/203/118 100/204/51 159/193/113
f 160/194/114 144/205/98 143/206/97
f 143/206/97 148/171/102 160/194/114
f 168/207/122 144/205/98 160/194/114
f 160/194/114 169/208/123 168/207/122
f 100/117/51 99/116/50 124/188/75
f 124/188/75 159/209/113 100/117/51
f 164/198/118 167/201/121 170/210/124
f 170/210/124 171/211/125 164/198/118
f 100/212/51 164/198/118 171/211/125
f 171/211/125 101/213/52 100/212/51
f 168/214/122 107/215/58 102/119/53
f 102/119/53 144/167/98 168/214/122
f 168/216/122 169/217/123 172/218/126
f 149/172/103 108/126/59 172/218/126
f 172/218/126 173/219/127 149/172/103
f 145/168/99 143/206/97 101/213/52
f 101/213/52 171/211/125 145/168/99
f 146/169/100 145/168/99 171/211/125
f 171/211/125 170/210/124 146/169/100
f 170/210/124 167/201/121 166/200/120
f 170/210/124 166/200/120 174/220/128
f 170/210/124 174/220/128 146/169/100
f 175/221/129 174/220/128 166/200/120
f 166/200/120 74/91/23 175/221/129
f 176/222/130 147/170/101 146/169/100
f 146/169/100 174/220/128 176/222/130
f 177/223/131 176/222/130 174/220/128
f 174/220/128 175/221/129 177/223/131
f 108/126/59 107/125/58 168/216/122
f 168/216/122 172/218/126 108/126/59
f 102/119/53 107/215/58 158/186/112
f 158/186/112 99/116/50 102/119/53
f 165/199/119 71/88/20 74/91/23
f 74/91/23 166/200/120 165/199/119
f 178/224/132 175/221/129 74/91/23
f 74/91/23 73/90/22 178/224/132
f 175/221/129 178/224/132 177/223/131
f 122/140/73 71/192/20 165/202/119
f 165/202/119 159/193/113 122/140/73
f 179/225/133 180/226/134 181/227/135
f 181/227/135 182/228/136 179/225/133
f 180/226/134 183/229/137 184/230/138
f 184/230/138 181/227/135 180/226/134
f 185/231/139 186/232/140 187/233/141
f 187/233/141 188/234/142 185/231/139
f 185/231/139 179/225/133 182/228/136
f 182/228/136 186/232/140 185/231/139
f 181/235/135 141/161/92 150/173/104
f 150/173/104 182/236/136 181/235/135
f 184/237/138 140/159/91 141/161/92
f 141/161/92 181/235/135 184/237/138
f 186/238/140 149/172/103 173/219/127
f 173/219/127 187/233/141 186/238/140
f 182/236/136 150/173/104 149/172/103
f 149/172/103 186/238/140 182/236/136
f 189/239/143 190/240/144 173/219/127
f 173/219/127 172/218/126 189/239/143
f 104/241/55 83/242/34 18/243/29
f 5/244/145 191/245/146 192/246/147
f 5/244/145 192/246/147 193/247/147
f 5/244/145 193/247/147 8/248/148
f 192/246/147 191/245/146 194/249/149
f 194/249/149 195/250/150 192/246/147
f 196/251/150 195/250/150 194/249/149
f 194/249/149 197/252/151 196/251/150
f 196/251/150 197/252/151 198/253/152
f 198/253/152 199/254/153 196/251/150
f 5/255/145 4/256/154 98/115/49
f 5/255/145 98/115/49 97/114/48
f 97/114/48 191/257/146 5/255/145
f 191/257/146 97/114/48 106/124/57
f 106/124/57 194/258/149 191/257/146
f 194/258/149 106/124/57 112/130/63
f 112/130/63 197/259/151 194/258/149
f 197/259/151 112/130/63 128/146/79
f 128/146/79 198/260/152 197/259/151
f 128/261/79 127/262/78 200/263/155
f 200/263/155 201/264/156 198/265/152
f 198/265/152 128/261/79 200/263/155
f 202/266/157 203/267/158 200/263/155
f 200/263/155 127/262/78 202/266/157
f 203/267/158 204/268/159 201/264/156
f 201/264/156 200/263/155 203/267/158
f 203/267/158 202/266/157 205/269/160
f 205/269/160 206/270/161 204/268/159
f 204/268/159 203/267/158 205/269/160
f 6/6/162 18/243/29 83/242/34
f 83/242/34 4/4/154 6/6/162
f 23/271/163 207/272/164 13/273/165
f 13/273/165 12/274/166 23/271/163
f 207/272/164 208/275/167 14/276/168
f 14/276/168 13/273/165 207/272/164
f 208/275/167 209/277/169 15/278/170
f 15/278/170 14/276/168 208/275/167
f 209/277/169 20/279/171 16/280/172
f 16/280/172 15/278/170 209/277/169
f 22/281/173 210/282/174 207/272/164
f 207/272/164 23/271/163 22/281/173
f 210/282/174 211/283/175 208/275/167
f 208/275/167 207/272/164 210/282/174
f 211/283/175 212/284/176 209/277/169
f 209/277/169 208/275/167 211/283/175
f 212/284/176 21/285/177 20/279/171
f 20/279/171 209/277/169 212/284/176
f 22/286/173 21/287/177 212/288/176
f 212/288/176 210/289/174 22/286/173
f 211/290/175 210/289/174 212/288/176
f 213/291/178 72/121/21 103/120/54
f 103/120/54 104/122/55 153/177/107
f 153/177/107 213/291/178 103/120/54
f 104/122/55 155/181/109 154/180/108
f 154/180/108 151/174/105 104/122/55
f 214/292/179 142/293/94 25/32/93
f 25/32/93 24/31/180 214/292/179
f 31/38/181 215/294/182 216/295/183
f 31/38/181 216/295/183 214/292/179
f 31/38/181 214/292/179 24/31/180
f 27/34/184 29/36/185 217/296/186
f 217/296/186 32/39/184 27/34/184
f 180/226/134 218/297/187 183/229/137
f 217/296/186 29/36/185 183/298/137
f 183/298/137 218/299/187 217/296/186
f 214/292/179 216/295/183 219/300/188
f 214/292/179 219/300/188 220/301/189
f 214/292/179 220/301/189 221/302/190
f 220/301/189 222/303/191 205/304/160
f 205/304/160 202/305/157 220/301/189
f 206/306/161 205/304/160 222/303/191
f 162/196/116 223/307/192 169/208/123
f 169/208/123 160/194/114 162/196/116
f 224/308/193 225/309/194 152/185/106
f 224/308/193 152/185/106 157/184/111
f 224/308/193 157/184/111 226/310/195
f 227/311/196 228/312/197 177/223/131
f 177/223/131 229/313/198 227/311/196
f 178/224/132 73/90/22 87/104/38
f 87/104/38 229/313/198 178/224/132
f 169/217/123 223/314/192 189/239/143
f 189/239/143 172/218/126 169/217/123
f 190/240/144 188/234/142 187/233/141
f 187/233/141 173/219/127 190/240/144
f 230/315/199 163/197/117 147/170/101
f 147/170/101 176/222/130 230/315/199
f 228/312/197 230/315/199 176/222/130
f 176/222/130 177/223/131 228/312/197
f 231/316/200 199/317/153 198/265/152
f 198/265/152 201/264/156 231/316/200
f 204/268/159 232/318/201 231/316/200
f 231/316/200 201/264/156 204/268/159
f 222/319/191 232/318/201 204/268/159
f 204/268/159 206/270/161 222/319/191
f 233/320/3 33/42/30 19/41/202
f 234/321/203 235/322/204 127/323/78
f 127/323/78 129/324/80 234/321/203
f 236/325/205 234/321/203 129/324/80
f 129/324/80 130/326/81 236/325/205
f 237/327/206 236/325/205 130/326/81
f 130/326/81 131/328/82 237/327/206
f 238/329/207 237/327/206 131/328/82
f 131/328/82 132/330/83 238/329/207
f 34/331/208 239/332/209 135/333/86
f 135/333/86 136/334/87 34/331/208
f 35/335/210 34/331/208 136/334/87
f 136/334/87 137/336/88 35/335/210
f 36/337/211 35/335/210 137/336/88
f 137/336/88 138/338/89 36/337/211
f 240/339/212 36/337/211 138/338/89
f 138/338/89 139/340/90 240/339/212
f 139/340/90 140/341/91 184/342/138
f 139/340/90 184/342/138 183/343/137
f 139/340/90 183/343/137 240/339/212
f 142/344/94 214/345/179 238/329/207
f 238/329/207 132/330/83 142/344/94
f 28/346/96 135/333/86 239/332/209
f 239/332/209 29/347/185 28/346/96
f 29/348/185 239/349/209 240/350/212
f 240/350/212 183/351/137 29/348/185
f 34/44/208 36/46/211 240/350/212
f 240/350/212 239/349/209 34/44/208
f 235/322/204 221/352/190 202/353/157
f 202/353/157 127/323/78 235/322/204
f 221/354/190 235/355/204 238/356/207
f 238/356/207 214/357/179 221/354/190
f 235/355/204 234/358/203 237/359/206
f 237/359/206 238/356/207 235/355/204
f 236/360/205 237/359/206 234/358/203
f 177/223/131 178/224/132 229/313/198
f 229/313/198 87/104/38 224/308/193
f 224/308/193 227/311/196 229/313/198
f 152/176/106 225/361/194 86/362/37
f 86/362/37 153/177/107 152/176/106
f 88/363/39 72/121/21 213/291/178
f 213/291/178 153/177/107 86/362/37
f 213/291/178 86/362/37 85/364/36
f 88/363/39 213/291/178 85/364/36
f 224/308/193 87/104/38 225/309/194
f 225/309/194 87/104/38 86/103/37
f 224/308/193 226/310/195 227/311/196
f 88/105/39 73/90/22 72/89/21
f 241/365/213 242/366/214 243/367/215
f 243/367/215 244/368/216 241/365/213
f 245/369/217 246/370/218 77/94/26
f 77/94/26 76/93/25 245/369/217
f 247/371/219 80/97/31 33/42/30
f 33/42/30 46/75/220 247/371/219
f 37/372/221 248/373/222 249/374/223
f 249/374/223 250/375/224 37/372/221
f 251/376/225 252/377/226 243/367/215
f 251/376/225 243/367/215 253/378/227
f 251/376/225 253/378/227 254/379/228
f 245/369/217 76/93/25 80/97/31
f 80/97/31 247/371/219 245/369/217
f 255/380/229 256/381/230 250/375/224
f 257/382/231 258/383/232 259/384/233
f 259/384/233 260/385/234 257/382/231
f 261/386/235 258/383/232 257/382/231
f 257/382/231 256/381/230 261/386/235
f 255/380/229 262/387/236 261/386/235
f 261/386/235 256/381/230 255/380/229
f 263/388/237 249/374/223 248/373/222
f 248/373/222 264/389/238 263/388/237
f 265/390/239 262/387/236 255/380/229
f 266/391/240 267/392/241 268/393/242
f 268/393/242 269/394/243 266/391/240
f 257/382/231 260/385/234 244/395/216
f 244/395/216 270/396/244 257/382/231
f 256/381/230 271/397/245 250/375/224
f 264/389/238 272/398/246 273/399/247
f 273/399/247 263/388/237 264/389/238
f 274/400/248 275/401/249 276/402/250
f 276/402/250 277/403/251 274/400/248
f 278/404/252 273/399/247 272/398/246
f 272/398/246 279/405/253 278/404/252
f 280/406/254 263/388/237 273/399/247
f 273/399/247 278/404/252 280/406/254
f 281/407/255 249/374/223 263/388/237
f 263/388/237 280/406/254 281/407/255
f 282/408/256 265/390/239 249/374/223
f 249/374/223 281/407/255 282/408/256
f 283/409/257 262/387/236 265/390/239
f 265/390/239 282/408/256 283/409/257
f 284/410/258 261/386/235 262/387/236
f 262/387/236 283/409/257 284/410/258
f 285/411/259 258/383/232 261/386/235
f 261/386/235 284/410/258 285/411/259
f 286/412/260 259/384/233 258/383/232
f 258/383/232 285/411/259 286/412/260
f 287/413/261 260/385/234 259/384/233
f 259/384/233 286/412/260 287/413/261
f 288/414/262 289/415/263 260/385/234
f 260/385/234 287/413/261 288/414/262
f 290/416/264 291/417/265 289/415/263
f 289/415/263 288/414/262 290/416/264
f 291/417/265 290/416/264 292/418/266
f 275/401/249 293/419/267 276/402/250
f 294/420/268 278/404/252 279/405/253
f 279/405/253 295/421/269 294/420/268
f 296/422/270 280/406/254 278/404/252
f 278/404/252 294/420/268 296/422/270
f 297/423/271 281/407/255 280/406/254
f 280/406/254 296/422/270 297/423/271
f 298/424/272 282/408/256 281/407/255
f 281/407/255 297/423/271 298/424/272
f 299/425/273 283/409/257 282/408/256
f 282/408/256 298/424/272 299/425/273
f 300/426/274 284/410/258 283/409/257
f 283/409/257 299/425/273 300/426/274
f 301/427/275 285/411/259 284/410/258
f 284/410/258 300/426/274 301/427/275
f 302/428/276 286/412/260 285/411/259
f 285/411/259 301/427/275 302/428/276
f 303/429/277 287/413/261 286/412/260
f 286/412/260 302/428/276 303/429/277
f 304/430/278 288/414/262 287/413/261
f 287/413/261 303/429/277 304/430/278
f 305/431/279 290/416/264 288/414/262
f 288/414/262 304/430/278 305/431/279
f 306/432/280 293/433/267 290/416/264
f 290/416/264 305/431/279 306/432/280
f 307/434/281 308/435/282 293/419/267
f 293/419/267 306/436/280 307/434/281
f 55/437/283 300/426/274 299/425/273
f 299/425/273 309/438/284 55/437/283
f 54/439/285 301/427/275 300/426/274
f 300/426/274 55/437/283 54/439/285
f 57/440/286 302/428/276 301/427/275
f 301/427/275 54/439/285 57/440/286
f 267/392/241 310/441/287 311/442/288
f 311/442/288 268/393/242 267/392/241
f 312/443/289 313/444/290 314/445/291
f 314/445/291 315/446/292 312/443/289
f 276/402/250 316/447/293 317/448/294
f 317/448/294 277/403/251 276/402/250
f 276/402/250 293/419/267 308/435/282
f 276/402/250 308/435/282 316/447/293
f 318/449/295 319/450/296 320/451/297
f 320/451/297 246/452/218 318/449/295
f 247/453/219 321/454/298 322/455/299
f 322/455/299 245/456/217 247/453/219
f 321/454/298 247/453/219 46/457/220
f 46/457/220 271/397/245 321/454/298
f 318/449/295 271/397/245 319/450/296
f 256/381/230 257/382/231 270/396/244
f 270/396/244 271/397/245 256/381/230
f 320/458/297 157/184/111 156/183/110
f 320/458/297 156/183/110 77/94/26
f 320/458/297 77/94/26 246/370/218
f 318/449/295 246/452/218 245/456/217
f 245/456/217 322/455/299 318/449/295
f 323/459/300 266/391/240 291/460/265
f 291/460/265 292/461/266 323/459/300
f 275/462/249 274/463/248 323/464/300
f 323/464/300 292/418/266 275/462/249
f 293/433/267 275/462/249 292/418/266
f 292/418/266 290/416/264 293/433/267
f 241/465/213 244/395/216 260/385/234
f 260/385/234 289/415/263 241/465/213
f 324/466/301 289/415/263 291/417/265
f 325/467/302 162/196/116 161/195/115
f 161/195/115 313/444/290 325/467/302
f 313/444/290 161/195/115 163/197/117
f 163/197/117 314/445/291 313/444/290
f 326/468/303 327/469/304 328/470/305
f 328/470/305 329/471/306 326/468/303
f 324/466/301 269/472/243 326/473/303
f 326/473/303 329/474/306 324/466/301
f 311/475/288 313/444/290 312/443/289
f 330/476/307 331/477/308 325/467/302
f 325/467/302 310/478/287 330/476/307
f 269/394/243 324/479/301 291/460/265
f 291/460/265 266/391/240 269/394/243
f 326/468/303 332/480/309 333/481/310
f 333/481/310 327/469/304 326/468/303
f 269/482/243 268/483/242 332/480/309
f 332/480/309 326/468/303 269/482/243
f 330/484/307 310/441/287 267/392/241
f 267/392/241 274/485/248 330/484/307
f 330/486/307 334/487/311 331/488/308
f 317/448/294 335/489/312 334/487/311
f 334/487/311 277/403/251 317/448/294
f 312/443/289 332/480/309 268/483/242
f 268/483/242 311/475/288 312/443/289
f 315/446/292 333/481/310 332/480/309
f 332/480/309 312/443/289 315/446/292
f 328/470/305 327/469/304 333/481/310
f 333/481/310 315/446/292 336/490/313
f 328/470/305 333/481/310 336/490/313
f 337/491/314 242/366/214 328/470/305
f 328/470/305 336/490/313 337/491/314
f 338/492/315 336/490/313 315/446/292
f 315/446/292 314/445/291 338/492/315
f 339/493/316 337/491/314 336/490/313
f 336/490/313 338/492/315 339/493/316
f 277/403/251 334/487/311 330/486/307
f 330/486/307 274/400/248 277/403/251
f 267/392/241 266/391/240 323/459/300
f 323/459/300 274/485/248 267/392/241
f 329/471/306 328/470/305 242/366/214
f 242/366/214 241/365/213 329/471/306
f 340/494/317 243/367/215 242/366/214
f 242/366/214 337/491/314 340/494/317
f 337/491/314 339/493/316 340/494/317
f 289/415/263 324/466/301 329/474/306
f 329/474/306 241/465/213 289/415/263
f 179/225/133 341/495/318 342/496/319
f 342/496/319 180/226/134 179/225/133
f 180/226/134 342/496/319 343/497/320
f 343/497/320 344/498/321 180/226/134
f 185/231/139 188/234/142 345/499/322
f 345/499/322 346/500/323 185/231/139
f 185/231/139 346/500/323 341/495/318
f 341/495/318 179/225/133 185/231/139
f 342/501/319 341/502/318 316/447/293
f 316/447/293 308/435/282 342/501/319
f 343/503/320 342/501/319 308/435/282
f 308/435/282 307/434/281 343/503/320
f 346/504/323 345/499/322 335/489/312
f 335/489/312 317/448/294 346/504/323
f 341/502/318 346/504/323 317/448/294
f 317/448/294 316/447/293 341/502/318
f 189/239/143 334/487/311 335/489/312
f 335/489/312 190/240/144 189/239/143
f 271/505/245 46/506/220 250/507/224
f 39/508/324 8/248/148 193/247/147
f 39/508/324 193/247/147 192/246/147
f 39/508/324 192/246/147 347/509/325
f 192/246/147 195/250/150 348/510/326
f 348/510/326 347/509/325 192/246/147
f 196/251/150 349/511/327 348/510/326
f 348/510/326 195/250/150 196/251/150
f 196/251/150 199/254/153 350/512/328
f 350/512/328 349/511/327 196/251/150
f 39/513/324 248/373/222 37/372/221
f 39/513/324 347/514/325 264/389/238
f 264/389/238 248/373/222 39/513/324
f 347/514/325 348/515/326 272/398/246
f 272/398/246 264/389/238 347/514/325
f 348/515/326 349/516/327 279/405/253
f 279/405/253 272/398/246 348/515/326
f 349/516/327 350/517/328 295/421/269
f 295/421/269 279/405/253 349/516/327
f 295/518/269 351/519/329 294/520/268
f 351/519/329 295/518/269 350/521/328
f 350/521/328 352/522/330 351/519/329
f 353/523/331 294/520/268 351/519/329
f 351/519/329 354/524/332 353/523/331
f 354/524/332 351/519/329 352/522/330
f 352/522/330 355/525/333 354/524/332
f 354/524/332 356/526/334 353/523/331
f 356/526/334 354/524/332 355/525/333
f 355/525/333 357/527/335 356/526/334
f 38/48/336 37/47/221 250/507/224
f 250/507/224 46/506/220 38/48/336
f 48/528/337 42/529/338 41/530/339
f 41/530/339 358/531/340 48/528/337
f 358/531/340 41/530/339 47/532/341
f 47/532/341 359/533/342 358/531/340
f 359/533/342 47/532/341 45/534/343
f 45/534/343 360/535/344 359/533/342
f 360/535/344 45/534/343 44/536/345
f 44/536/345 51/537/346 360/535/344
f 49/538/347 48/528/337 358/531/340
f 358/531/340 361/539/348 49/538/347
f 361/539/348 358/531/340 359/533/342
f 359/533/342 362/540/349 361/539/348
f 362/540/349 359/533/342 360/535/344
f 360/535/344 363/541/350 362/540/349
f 363/541/350 360/535/344 51/537/346
f 51/537/346 50/542/351 363/541/350
f 49/543/347 361/544/348 363/545/350
f 363/545/350 50/546/351 49/543/347
f 362/547/349 363/545/350 361/544/348
f 364/548/352 270/396/244 244/395/216
f 270/396/244 364/548/352 319/450/296
f 319/450/296 271/397/245 270/396/244
f 271/397/245 322/455/299 321/454/298
f 322/455/299 271/397/245 318/449/295
f 365/549/353 52/67/180 55/70/283
f 55/70/283 309/550/284 365/549/353
f 216/295/183 215/294/182 58/73/181
f 58/73/181 52/67/180 365/549/353
f 216/295/183 58/73/181 365/549/353
f 53/68/184 32/39/184 217/296/186
f 217/296/186 56/71/354 53/68/184
f 180/226/134 344/498/321 218/297/187
f 217/296/186 218/299/187 344/551/321
f 344/551/321 56/71/354 217/296/186
f 219/300/188 216/295/183 365/549/353
f 365/549/353 366/552/355 220/301/189
f 219/300/188 365/549/353 220/301/189
f 220/301/189 353/553/331 356/554/334
f 356/554/334 222/303/191 220/301/189
f 357/555/335 222/303/191 356/554/334
f 162/196/116 325/467/302 331/477/308
f 331/477/308 223/307/192 162/196/116
f 320/458/297 367/556/356 368/557/357
f 368/557/357 226/310/195 157/184/111
f 320/458/297 368/557/357 157/184/111
f 227/311/196 369/558/358 339/493/316
f 339/493/316 228/312/197 227/311/196
f 340/494/317 369/558/358 253/378/227
f 253/378/227 243/367/215 340/494/317
f 331/488/308 334/487/311 189/239/143
f 189/239/143 223/314/192 331/488/308
f 190/240/144 335/489/312 345/499/322
f 345/499/322 188/234/142 190/240/144
f 230/315/199 338/492/315 314/445/291
f 314/445/291 163/197/117 230/315/199
f 228/312/197 339/493/316 338/492/315
f 338/492/315 230/315/199 228/312/197
f 231/316/200 352/522/330 350/521/328
f 350/521/328 199/317/153 231/316/200
f 355/525/333 352/522/330 231/316/200
f 231/316/200 232/318/201 355/525/333
f 222/319/191 357/527/335 355/525/333
f 355/525/333 232/318/201 222/319/191
f 370/559/359 296/560/270 294/561/268
f 294/561/268 371/562/360 370/559/359
f 372/563/361 297/564/271 296/560/270
f 296/560/270 370/559/359 372/563/361
f 373/565/362 298/566/272 297/564/271
f 297/564/271 372/563/361 373/565/362
f 374/567/363 299/568/273 298/566/272
f 298/566/272 373/565/362 374/567/363
f 59/569/364 303/570/277 302/571/276
f 302/571/276 375/572/365 59/569/364
f 61/573/366 304/574/278 303/570/277
f 303/570/277 59/569/364 61/573/366
f 60/575/367 305/576/279 304/574/278
f 304/574/278 61/573/366 60/575/367
f 376/577/368 306/578/280 305/576/279
f 305/576/279 60/575/367 376/577/368
f 306/578/280 376/577/368 344/579/321
f 306/578/280 344/579/321 343/580/320
f 306/578/280 343/580/320 307/581/281
f 309/582/284 299/568/273 374/567/363
f 374/567/363 365/583/353 309/582/284
f 57/584/286 56/585/354 375/572/365
f 375/572/365 302/571/276 57/584/286
f 56/586/354 344/587/321 376/588/368
f 376/588/368 375/589/365 56/586/354
f 59/76/364 375/589/365 376/588/368
f 376/588/368 60/77/367 59/76/364
f 371/562/360 294/561/268 353/590/331
f 353/590/331 366/591/355 371/562/360
f 366/592/355 365/593/353 374/594/363
f 374/594/363 371/595/360 366/592/355
f 371/595/360 374/594/363 373/596/362
f 373/596/362 370/597/359 371/595/360
f 372/598/361 370/597/359 373/596/362
f 339/493/316 369/558/358 340/494/317
f 369/558/358 227/311/196 368/557/357
f 368/557/357 253/378/227 369/558/358
f 320/451/297 319/450/296 254/599/228
f 254/599/228 367/600/356 320/451/297
f 364/548/352 244/395/216 252/601/226
f 364/548/352 252/601/226 251/602/225
f 364/548/352 251/602/225 254/599/228
f 364/548/352 254/599/228 319/450/296
f 368/557/357 367/556/356 253/378/227
f 367/556/356 254/379/228 253/378/227
f 368/557/357 227/311/196 226/310/195
f 252/377/226 244/368/216 243/367/215
f 143/206/97 145/168/99 148/171/102
f 325/467/302 313/444/290 311/475/288
f 311/475/288 310/478/287 325/467/302
f 4/256/154 83/100/34 82/99/33
f 82/99/33 98/115/49 4/256/154
f 250/375/224 249/374/223 265/390/239
f 265/390/239 255/380/229 250/375/224
f 377/603/369 378/604/370 379/605/371
f 379/605/371 380/606/372 381/607/373
f 379/605/371 382/608/374 380/606/372
f 379/605/371 383/609/375 382/608/374
f 379/605/371 381/607/373 377/603/369
f 384/610/376 380/611/372 382/612/374
f 384/610/376 382/612/374 383/613/375
f 383/613/375 385/614/377 384/610/376
f 377/603/369 384/615/376 385/616/377
f 384/615/376 377/603/369 386/617/378
f 386/617/378 387/618/379 384/615/376
f 380/611/372 384/610/376 387/619/379
f 387/619/379 388/620/380 380/611/372
f 387/619/379 389/621/381 388/620/380
f 387/618/379 386/617/378 390/622/382
f 390/622/382 389/623/381 387/618/379
f 388/624/380 389/623/381 390/622/382
f 390/622/382 391/625/383 388/624/380
f 386/617/378 392/626/384 390/622/382
f 392/626/384 391/625/383 390/622/382
f 392/626/384 393/627/385 380/606/372
f 386/617/378 393/627/385 392/626/384
f 391/625/383 392/626/384 394/628/386
f 380/606/372 394/628/386 392/626/384
f 394/628/386 388/624/380 391/625/383
f 388/620/380 394/629/386 380/611/372
f 386/617/378 377/603/369 393/627/385
f 377/603/369 381/607/373 393/627/385
f 380/606/372 393/627/385 381/607/373
f 385/616/377 378/604/370 377/603/369
f 395/630/387 396/631/388 397/632/389
f 396/631/388 395/630/387 398/633/390
f 399/634/391 397/632/389 396/631/388
f 398/633/390 399/634/391 396/631/388
f 399/634/391 398/633/390 400/635/392
f 395/636/387 400/637/392 398/638/390
f 400/635/392 401/639/393 399/634/391
f 402/640/394 401/639/393 400/635/392
f 400/637/392 403/641/395 404/642/396
f 395/636/387 403/641/395 400/637/392
f 404/642/396 405/643/397 400/637/392
f 406/644/398 402/640/394 400/635/392
f 405/645/397 406/644/398 400/635/392
f 407/646/399 402/640/394 406/644/398
f 406/644/398 408/647/370 407/646/399
f 405/645/397 409/648/400 406/644/398
f 407/646/399 408/647/370 410/649/377
f 410/649/377 404/650/396 407/646/399
f 404/642/396 410/651/377 409/652/400
f 409/652/400 405/643/397 404/642/396
f 411/653/401 401/639/393 407/646/399
f 407/646/399 401/639/393 402/640/394
f 411/653/401 407/646/399 404/650/396
f 397/632/389 411/653/401 403/654/395
f 399/634/391 411/653/401 397/632/389
f 399/634/391 401/639/393 411/653/401
f 404/650/396 403/654/395 411/653/401
f 403/654/395 412/655/402 397/632/389
f 395/636/387 412/656/402 403/641/395
f 397/632/389 412/655/402 395/630/387
